<REAPER_PROJECT 0.1 "5.50rc13/OSX64" 1502551318
  RIPPLE 0
  GROUPOVERRIDE 0 0 0
  AUTOXFADE 0
  ENVATTACH 1
  POOLEDENVATTACH 0
  MIXERUIFLAGS 11 52
  PEAKGAIN 1
  FEEDBACK 0
  PANLAW 1
  PROJOFFS 0 0
  MAXPROJLEN 0 600
  GRID 174207 8 1 8 0.125 0 0 0
  TIMEMODE 6 0 -1 24 2
  PANMODE 3
  CURSOR 6
  ZOOM 6.79144862589299 0 0
  VZOOMEX 0
  USE_REC_CFG 0
  RECMODE 1
  SMPTESYNC 0 23.976024 100 40 1000 300 0 0 1 0 0
  MIDIEDITOR -116919545 0 0
  LOOP 1
  LOOPGRAN 0 4
  RECORD_PATH "" ""
  <RECORD_CFG
    ZXZhdxAA
  >
  <APPLYFX_CFG
  >
  RENDER_FILE ""
  RENDER_PATTERN ArgentinaQuantizeFinal
  RENDER_FMT 0 2 44100
  RENDER_1X 0
  RENDER_RANGE 1 0 0 18 1000
  RENDER_RESAMPLE 3 0 1
  RENDER_ADDTOPROJ 0
  RENDER_STEMS 0
  RENDER_DITHER 0
  TIMELOCKMODE 1
  TEMPOENVLOCKMODE 1
  ITEMMIX 1
  DEFPITCHMODE 589824
  TAKELANE 3
  SAMPLERATE 44100 0 0
  <RENDER_CFG
    bDNwbSAAAAABAAAABQAAAAAAAAAAAAAAQAEAAAAAAAA=
  >
  LOCK 1
  <METRONOME 6 2
    VOL 0.25 0.125
    FREQ 800 1600 1
    BEATLEN 4
    SAMPLES "" ""
    PATTERN 2863311530 2863311529
  >
  GLOBAL_AUTO -1
  TEMPO 120 4 4
  PLAYRATE 1 0 0.25 4
  SELECTION 9 29
  SELECTION2 9 29
  MASTERAUTOMODE 0
  MASTERTRACKHEIGHT 0
  MASTERPEAKCOL 16576
  MASTERMUTESOLO 0
  MASTERTRACKVIEW 0 0.6667 0.5 0.5 0 0 0
  MASTERHWOUT 0 0 1 0 0 0 0 -1
  MASTER_NCH 2 2
  MASTER_VOLUME 1 0 -1 -1 1
  MASTER_FX 1
  MASTER_SEL 0
  <MASTERPLAYSPEEDENV
    ACT 0
    VIS 0 1 1
    LANEHEIGHT 0 0
    ARM 0
    DEFSHAPE 0 -1 -1
  >
  <TEMPOENVEX
    ACT 0
    VIS 1 0 1
    LANEHEIGHT 0 0
    ARM 0
    DEFSHAPE 1 -1 -1
  >
  MARKER 1 9 loop 1 0 1 B
  MARKER 1 29 "" 1 0 1 B
  <PROJBAY
  >
  <TRACK {800405A8-1053-BB45-896B-D44486E7C8AD}
    NAME Midi
    PEAKCOL 16576
    BEAT -1
    AUTOMODE 0
    VOLPAN 1 0 -1 -1 1
    MUTESOLO 0 0 0
    IPHASE 0
    ISBUS 0 0
    BUSCOMP 0 0
    SHOWINMIX 1 0.6667 0.5 1 0.5 0 0 0
    FREEMODE 0
    SEL 1
    REC 0 0 0 0 0 0 0
    VU 2
    TRACKHEIGHT 0 0
    INQ 0 0 0 0.5 100 0 0 100
    NCHAN 2
    FX 1
    TRACKID {800405A8-1053-BB45-896B-D44486E7C8AD}
    PERF 0
    MIDIOUT -1
    MAINSEND 1 0
    <ITEM
      POSITION 9
      SNAPOFFS 0
      LENGTH 20
      LOOP 1
      ALLTAKES 0
      FADEIN 1 0 0 1 0 0
      FADEOUT 1 0 0 1 0 0
      MUTE 0
      SEL 0
      YPOS 0.172211 0.05
      IGUID {7AD24074-8DBC-F44D-BB06-225C814AA2E9}
      IID 37
      NAME "fr. horn(s) - National_Anthems_-_Argentina.mid"
      VOLPAN 1 0 1 -1
      SOFFS 9 18
      PLAYRATE 1 1 0 -1 0 0.0025
      CHANMODE 0
      TAKECOLOR 26173599 B
      GUID {0E13ADA0-9591-7345-B3AA-38CA5A68D68E}
      <SOURCE MIDI
        HASDATA 1 480 QN
        POOLEDEVTS {918414C9-C3E4-6A45-A64B-CC3066A26443}
        <X 0 0 0 0 3 "fr. horn(s)"
          /wNmci4gaG9ybihzKQ==
        >
        <X 0 0 0 0 4 "Sound Canvas"
          /wRTb3VuZCBDYW52YXM=
        >
        E 0 91 3a 7f
        E 840 81 3a 01 39
        E 120 91 3e 7f -15
        E 720 81 3e 01 -52
        E 120 91 3a 7f -51
        E 120 81 3a 19 -52
        E 0 91 41 7f -22
        E 1320 81 41 08 -29
        E 120 91 3f 7f -15
        E 240 81 3f 19 36
        E 120 91 3c 7f -44
        E 120 81 3c 35 -53
        E 0 91 39 7f -12
        E 360 81 39 01 -25
        E 120 91 39 7f -15
        E 360 81 39 10 -6
        E 120 91 39 7f -3
        E 360 81 39 0b -30
        E 120 91 39 7f -10
        E 360 81 39 01 11
        E 120 91 39 7f
        E 720 81 39 36 -9
        E 0 91 3a 7f -21
        E 120 81 3a 2d -50
        E 0 91 3c 7f -16
        E 120 81 3c 20 -24
        E 0 91 3a 7f 3
        E 1080 81 3a 40 -47
        E 120 91 3e 7f 1
        E 240 81 3e 19 -15
        E 0 91 3f 7f -3
        E 240 81 3f 21 -21
        E 0 91 3c 7f -18
        E 240 81 3c 04 -44
        E 0 91 3e 7f
        E 360 81 3e 15 35
        E 120 91 3e 7f 3
        E 240 81 3e 01 10
        E 120 91 46 7f -26
        E 120 81 46 2e -40
        E 0 91 45 7f -22
        E 240 81 45 2e -24
        E 0 91 43 7f -4
        E 120 81 43 0b 45
        E 120 91 41 7f -18
        E 240 81 41 12 14
        E 120 91 3f 7f -30
        E 120 81 3f 21 -52
        E 0 91 3e 7f -31
        E 960 81 3e 39 -7
        E 0 91 35 7f -16
        E 360 81 35 51 22
        E 120 91 35 7f 8
        E 0 91 3a 7f 2
        E 240 81 35 29 24
        E 0 81 3a 37 6
        E 120 91 3a 7f -26
        E 0 91 3e 7f -28
        E 120 81 3a 2a -64
        E 0 81 3e 2f -54
        E 0 91 37 7f 13
        E 0 91 3c 7f 10
        E 360 81 3c 24 54
        E 120 81 37 2a -60
        E 0 91 37 7f 16
        E 0 91 3c 7f 17
        E 240 81 37 3f 15
        E 0 81 3c 24 -17
        E 120 91 3c 7f -29
        E 0 91 3f 7f -40
        E 120 81 3c 35 -73
        E 0 81 3f 3d -81
        E 0 91 3a 7f -10
        E 0 91 3e 7f 4
        E 360 81 3a 32 56
        E 0 81 3e 3b 53
        E 120 91 3c 7f -3
        E 0 91 3f 7f -9
        E 240 81 3c 1d 10
        E 0 81 3f 3f 12
        E 120 91 3c 7f -21
        E 0 91 3f 7f -31
        E 120 81 3c 01 -56
        E 0 81 3f 2c -56
        E 0 91 35 7f 5
        e 0 91 3a 7f 1920
        E 0 91 3e 7f
        e 360 81 3a 3c 1949
        E 120 81 35 37 -37
        E 0 81 3e 49 -38
        E 0 91 3a 7f -1
        E 0 91 3e 7f -7
        E 240 81 3a 35 26
        E 0 81 3e 1e 31
        E 120 91 3a 7f 5
        E 0 91 3e 7f 8
        E 120 81 3a 3d -60
        E 0 81 3e 2a -49
        E 0 91 3a 7f 8
        E 0 91 3e 7f 13
        E 240 81 3a 47 55
        E 120 81 3e 29 -45
        E 120 91 32 7f 15
        E 240 81 32 01 51
        E 120 91 35 7f -45
        E 120 81 35 57 -69
        E 480 91 3a 7f -8
        E 240 81 3a 3d -6
        E 120 91 3a 7f -13
        E 120 81 3a 3d -82
        E 0 91 3a 7f 3
        E 360 81 3a 24 5
        E 120 91 3c 7f -18
        E 360 81 3c 0e -56
        E 0 91 3a 7f -16
        E 120 81 3a 2b -82
        E 0 91 3a 7f -10
        E 480 81 3a 01 -15
        E 0 91 39 7f 7
        E 600 81 39 53
        E 360 91 39 7f -22
        E 0 91 3c 7f -23
        E 240 81 39 39 -6
        E 0 81 3c 1d -31
        E 0 91 3c 7f 52
        E 0 91 41 7f 50
        E 120 81 3c 38 24
        E 0 81 41 48 4
        E 120 91 3a 7f -5
        E 0 91 3e 7f -21
        E 360 81 3a 34 -2
        E 0 81 3e 36 -7
        E 120 91 3a 7f -10
        E 0 91 3e 7f -12
        E 240 81 3a 45 -1
        E 0 81 3e 37 -19
        E 120 91 3e 7f -32
        E 0 91 43 7f -36
        E 120 81 3e 41 -55
        E 0 81 43 52 -73
        E 0 91 37 7f -8
        E 0 91 3a 7f -8
        E 360 81 37 24 -14
        E 0 81 3a 32 -11
        E 120 91 37 7f -11
        E 0 91 3a 7f -18
        E 240 81 37 2a -19
        E 0 81 3a 38 -42
        E 0 91 3a 7f 54
        E 0 91 40 7f 59
        E 120 81 3a 30 14
        E 0 81 40 3f 40
        E 120 91 39 7f -14
        E 0 91 3c 7f -17
        E 360 81 39 22 28
        E 0 81 3c 2f 36
        E 120 91 39 7f -13
        E 0 91 3c 7f -20
        E 360 81 39 34 23
        E 0 81 3c 2f 28
        E 120 91 39 7f -20
        E 0 91 3c 7f -32
        E 120 81 39 51 24
        E 0 81 3c 48 33
        E 120 91 41 7f -10
        E 0 91 45 7f -17
        E 120 81 41 16 51
        E 0 81 45 1d 29
        E 120 91 43 7f -26
        E 0 91 46 7f -31
        E 120 81 43 26 1
        E 0 81 46 31 16
        E 120 91 45 7f -44
        E 0 91 48 7f -41
        E 120 81 45 39 -21
        E 0 81 48 43 -21
        E 120 91 46 7f -31
        E 0 91 49 7f -33
        E 360 81 46 4a 39
        E 0 81 49 50 6
        E 120 91 41 7f -17
        E 0 91 49 7f -29
        E 240 81 41 24 -4
        E 0 81 49 46 -13
        E 120 91 41 7f -52
        E 0 91 49 7f -51
        E 120 81 41 1f -73
        E 0 81 49 19 -61
        E 0 91 42 7f -38
        E 0 91 4b 7f -43
        E 120 81 42 01 55
        E 120 81 4b 46 -59
        E 0 91 41 7f -56
        E 0 91 49 7f -56
        E 120 81 41 20 -16
        E 0 81 49 15 4
        E 120 91 3f 7f
        E 0 91 48 7f -50
        E 120 81 48 01 54
        E 120 81 3f 01
        E 0 91 3d 7f -60
        E 0 91 46 7f -52
        E 120 81 3d 11 -36
        E 0 81 46 30 -40
        E 120 91 3d 7f -39
        E 0 91 46 7f -37
        E 840 81 3d 01 51
        E 120 81 46 01 -18
        E 0 91 3c 7f -11
        E 0 91 45 7f -5
        E 120 81 3c 48 23
        E 0 81 45 41 6
        E 120 91 41 7f -3
        E 240 81 41 38 -56
        E 0 91 40 7f -19
        E 120 81 40 31 58
        E 120 91 3f 7f -11
        E 240 81 3f 46 -59
        E 0 b0 7b 00
        GUID {3102B285-EC86-6248-A61C-0C00FC2B19E4}
        IGNTEMPO 0 120 4 4
        SRCCOLOR 1021
        VELLANE -1 86 6
        CFGEDITVIEW 11761.90701 114.176907 0 7 0 0 0 0 0 0.5
        KEYSNAP 0
        TRACKSEL 226
        EVTFILTER 0 -1 -1 -1 -1 0 0 0 0 -1 -1 -1 -1 0 -1 0 -1 -1
        CFGEDIT 1 0 0 0 0 0 1 0 1 1 1 0.25 32 36 1920 1178 0 0 2 3 0 0 0 0 0 0.5 0 0 1 64
      >
      TAKE
      NAME "fr. horn(s) - National_Anthems_-_Argentina.mid"
      TAKEVOLPAN 0 1 -1
      SOFFS 9 18
      PLAYRATE 1 1 0 -1 0 0.0025
      CHANMODE 0
      GUID {FAF3ABF2-5D00-8B43-9537-0242EE74438A}
      <SOURCE MIDI
        HASDATA 1 480 QN
        POOLEDEVTS {551C3885-C074-F74C-8569-D981435DCAA2}
        <X 0 0 0 0 3 "fr. horn(s)"
          /wNmci4gaG9ybihzKQ==
        >
        <X 0 0 0 0 4 "Sound Canvas"
          /wRTb3VuZCBDYW52YXM=
        >
        E 0 91 3a 5a
        E 879 81 3a 01
        E 66 91 3e 5f
        E 683 81 3e 01
        E 121 91 3a 5d
        E 119 81 3a 19
        E 30 91 41 5f
        E 1313 81 41 08
        E 134 91 3f 5f
        E 291 81 3f 19
        E 40 91 3c 5a
        E 111 81 3c 35
        E 41 91 39 5a
        E 347 81 39 01
        E 130 91 39 4f
        E 369 81 39 10
        E 123 91 39 4f
        E 333 81 39 0b
        E 140 91 39 55
        E 381 81 39 01
        E 109 91 39 55
        E 699 91 3a 55
        E 12 81 39 36
        E 79 81 3a 2d
        E 34 91 3c 35
        E 112 81 3c 20
        E 27 91 3a 4d
        E 1030 81 3a 40
        E 168 91 3e 57
        E 224 81 3e 19
        E 12 91 3f 4e
        E 222 81 3f 21
        E 3 91 3c 55
        E 214 81 3c 04
        E 44 91 3e 4a
        E 395 81 3e 15
        E 88 91 3e 4d
        E 247 81 3e 01
        E 84 91 46 5a
        E 106 81 46 2e
        E 18 91 45 48
        E 238 81 45 2e
        E 20 91 43 55
        E 169 81 43 0b
        E 57 91 41 5a
        E 272 81 41 12
        E 76 91 3f 4a
        E 98 81 3f 21
        E 21 91 3e 4f
        E 975 91 35 47
        E 9 81 3e 39
        E 389 81 35 51
        E 100 91 3a 5d
        E 6 91 35 4d
        E 238 81 3a 37
        E 18 81 35 29
        E 68 91 3e 5a
        E 2 91 3a 48
        E 82 81 3a 2a
        E 10 81 3e 2f
        E 64 91 3c 52
        E 3 91 37 47
        E 401 81 3c 24
        E 6 81 37 2a
        E 76 91 37 4d
        E 1 91 3c 44
        E 206 81 3c 24
        E 32 81 37 3f
        E 65 91 3f 5d
        E 11 91 3c 4a
        E 68 81 3f 3d
        E 8 81 3c 35
        E 63 91 3a 4d
        E 14 91 3e 2d
        E 409 81 3e 3b
        E 3 81 3a 32
        E 55 91 3f 5a
        E 6 91 3c 4d
        E 253 81 3c 1d
        E 2 81 3f 3f
        E 77 91 3f 44
        E 10 91 3c 44
        E 85 81 3f 2c
        E 0 81 3c 01
        E 56 91 3e 47
        E 5 91 35 4f
        E 437 81 3e 49
        E 1 81 35 37
        E 30 91 3e 55
        E 6 91 3a 4f
        E 267 81 3a 35
        E 5 81 3e 1e
        E 94 91 3a 5a
        E 3 91 3e 4b
        E 52 81 3a 3d
        E 11 81 3e 2a
        E 57 91 3a 5a
        E 5 91 3e 4e
        E 282 81 3a 47
        E 20 81 3e 29
        E 180 91 32 5d
        E 276 81 32 01
        E 24 91 35 5f
        E 96 81 35 57
        E 69 91 3a 48
        E 389 81 3a 3c
        E 83 91 3a 55
        E 242 81 3a 3d
        E 113 91 3a 55
        E 51 81 3a 3d
        E 85 91 3a 4e
        E 362 81 3a 24
        E 97 91 3c 55
        E 322 81 3c 0e
        E 40 91 3a 4f
        E 54 81 3a 2b
        E 72 91 3a 55
        E 475 81 3a 01
        E 22 91 39 1a
        E 593 81 39 53
        E 337 91 3c 5d
        E 1 91 39 4a
        E 231 81 3c 1d
        E 25 81 39 39
        E 56 91 41 55
        E 2 91 3c 4f
        E 72 81 41 48
        E 20 81 3c 38
        E 75 91 3e 4f
        E 16 91 3a 1b
        E 358 81 3e 36
        E 5 81 3a 34
        E 110 91 3e 5d
        E 2 91 3a 4a
        E 231 81 3e 37
        E 18 81 3a 45
        E 85 91 43 42
        E 4 91 3e 41
        E 79 81 43 52
        E 18 81 3e 41
        E 47 91 3a 4d
        E 0 91 37 47
        E 354 81 37 24
        E 3 81 3a 32
        E 113 91 3a 55
        E 7 91 37 48
        E 209 81 3a 38
        E 23 81 37 2a
        E 73 91 3a 5d
        E 5 91 40 4a
        E 75 81 3a 30
        E 26 81 40 3f
        E 63 91 3c 4e
        E 3 91 39 52
        E 402 81 39 22
        E 8 81 3c 2f
        E 64 91 3c 44
        E 7 91 39 48
        E 396 81 39 34
        E 5 81 3c 2f
        E 60 91 3c 44
        E 12 91 39 44
        E 164 81 39 51
        E 9 81 3c 48
        E 70 91 45 62
        E 7 91 41 55
        E 159 81 45 1d
        E 22 81 41 16
        E 38 91 46 62
        E 5 91 43 5a
        E 147 81 43 26
        E 15 81 46 31
        E 60 91 45 57
        E 3 91 48 4f
        E 140 81 45 39
        E 0 81 48 43
        E 108 91 49 62
        E 2 91 46 5d
        E 397 81 49 50
        E 33 81 46 4a
        E 52 91 49 65
        E 12 91 41 39
        E 244 81 49 46
        E 9 81 41 24
        E 72 91 41 4b
        E 1 91 49 62
        E 98 81 41 1f
        E 12 81 49 19
        E 18 91 4b 55
        E 5 91 42 4e
        E 213 81 42 01
        E 6 81 4b 46
        E 3 91 49 5d
        E 0 91 41 4f
        E 160 81 41 20
        E 20 81 49 15
        E 47 91 3f 4e
        E 19 91 48 39
        E 224 81 48 01
        E 6 91 3d 4a
        E 8 91 46 5d
        E 61 81 3f 01
        E 71 81 46 30
        E 4 81 3d 11
        E 117 91 3d 62
        E 2 91 46 5d
        E 928 81 3d 01
        E 51 81 46 01
        E 7 91 3c 47
        E 6 91 45 4e
        E 131 81 45 41
        E 17 81 3c 48
        E 94 91 41 5a
        E 187 81 41 38
        E 37 91 40 55
        E 197 81 40 31
        E 51 91 3f 4b
        E 192 81 3f 46
        E 59 b0 7b 00
        GUID {0EF98810-6EBD-794B-A992-7FF798E39F77}
        IGNTEMPO 0 120 4 4
        SRCCOLOR 1068
        VELLANE -1 86 6
        CFGEDITVIEW 7680 67.090909 0 6 0 0 0 0 0 0.5
        KEYSNAP 0
        TRACKSEL 226
        EVTFILTER 0 -1 -1 -1 -1 0 0 0 0 -1 -1 -1 -1 0 -1 0 -1 -1
        CFGEDIT 1 0 0 0 0 0 1 0 1 1 1 0.25 48 52 1920 1178 0 0 2 3 0 0 0 0 0 0.5 0 0 1 64
      >
    >
    <ITEM
      POSITION 9
      SNAPOFFS 0
      LENGTH 20
      LOOP 1
      ALLTAKES 0
      FADEIN 1 0 0 1 0 0
      FADEOUT 1 0 0 1 0 0
      MUTE 0
      SEL 0
      YPOS 0.95 0.05
      IGUID {0E2D70AE-C7BB-B84F-B204-9644E12DF1C1}
      IID 42
      NAME "strings (bass) - National_Anthems_-_Argentina.mid"
      VOLPAN 1 0 1 -1
      SOFFS 9 18
      PLAYRATE 1 1 0 -1 0 0.0025
      CHANMODE 0
      GUID {AA5CE9F5-95EF-F848-80E6-0DA3DFA7D01F}
      <SOURCE MIDI
        HASDATA 1 480 QN
        POOLEDEVTS {189B832A-3852-A341-BE68-9E452DD587FB}
        <X 0 0 0 0 3 "strings (bass)"
          /wNzdHJpbmdzIChiYXNzKQ==
        >
        <X 0 0 0 0 4 "Sound Canvas"
          /wRTb3VuZCBDYW52YXM=
        >
        E 0 96 22 5d
        E 895 86 22 1c
        E 46 96 26 5a
        E 704 86 26 19
        E 116 96 22 67
        E 125 86 22 43
        E 13 96 29 67
        E 1206 86 29 32
        E 216 96 27 67
        E 268 86 27 17
        E 61 96 24 4a
        E 152 86 24 14
        E 23 96 21 62
        E 365 86 21 01
        E 103 96 1d 4d
        E 319 86 1d 01
        E 191 96 1d 48
        E 246 86 1d 01
        E 227 96 1d 47
        E 245 86 1d 01
        E 241 96 1d 4a
        E 907 86 1d 0f
        E 33 96 22 42
        E 1013 86 22 63
        E 913 96 22 2d
        E 711 86 22 29
        E 246 96 22 41
        E 649 86 22 40
        E 551 96 22 5a
        E 63 86 22 43
        E 88 96 22 5f
        E 94 96 26 5a
        E 6 86 22 4b
        E 214 86 26 1a
        E 12 96 29 5f
        E 247 86 29 33
        E 2 96 2e 4d
        E 412 86 2e 1c
        E 75 96 26 62
        E 226 86 26 27
        E 117 96 26 4d
        E 135 86 26 37
        E 1 96 27 44
        E 436 86 27 29
        E 16 96 24 5a
        E 229 86 24 24
        E 135 96 24 45
        E 145 86 24 4a
        E 10 96 29 5f
        E 398 86 29 01
        E 71 96 1d 47
        E 426 86 1d 0f
        E 25 96 22 55
        E 254 96 2e 5a
        E 29 86 22 41
        E 114 86 2e 1d
        E 88 96 29 67
        E 145 86 29 25
        E 103 96 26 55
        E 150 86 26 27
        E 101 96 22 4d
        E 490 86 22 51
        E 511 96 22 55
        E 172 96 2e 55
        E 47 86 22 01
        E 97 86 2e 32
        E 103 96 29 67
        E 127 86 29 26
        E 115 96 26 4e
        E 134 86 26 3a
        E 120 96 22 55
        E 452 86 22 42
        E 42 96 24 4f
        E 425 86 24 54
        E 274 96 1d 4d
        E 60 86 1d 43
        E 101 96 1d 4e
        E 72 96 21 65
        E 3 86 1d 45
        E 240 86 21 42
        E 3 96 24 4f
        E 241 86 24 29
        E 6 96 29 55
        E 372 86 29 3a
        E 89 96 21 5f
        E 265 86 21 30
        E 114 96 21 5f
        E 110 86 21 35
        E 16 96 22 5d
        E 353 86 22 2d
        E 105 96 22 5f
        E 315 86 22 01
        E 35 96 1f 55
        E 127 86 1f 40
        E 12 96 24 55
        E 380 86 24 01
        E 119 96 24 4b
        E 410 86 24 01
        E 47 96 1d 52
        E 239 86 1d 15
        E 3 96 29 5d
        E 146 86 29 3a
        E 104 96 24 5a
        E 182 86 24 0c
        E 55 96 21 62
        E 228 86 21 01
        E 16 96 1d 4b
        E 118 86 1d 13
        E 122 96 1d 65
        E 202 86 1d 2c
        E 29 96 1f 62
        E 188 86 1f 33
        E 38 96 21 62
        E 254 96 22 62
        E 14 86 21 38
        E 1394 86 22 37
        E 4 96 25 5f
        E 512 86 25 43
        E 16 96 1d 4e
        E 876 86 1d 40
        E 59 96 1d 48
        E 289 86 1d 3c
        E 686 96 22 4a
        E 10 86 22 00
        E 0 b0 7b 00
        GUID {59E80039-3761-6247-998C-6185D07CC4C9}
        IGNTEMPO 0 120 4 4
        SRCCOLOR 1026
        VELLANE -1 86 6
        CFGEDITVIEW 7680 67.818182 0 7 0 0 0 0 0 0.5
        KEYSNAP 0
        TRACKSEL 226
        EVTFILTER 0 -1 -1 -1 -1 0 0 0 0 -1 -1 -1 -1 0 -1 0 -1 -1
        CFGEDIT 1 0 0 0 0 0 1 0 1 1 1 0.25 32 36 1920 1178 0 0 2 3 0 0 0 0 0 0.5 0 0 1 64
      >
    >
    <ITEM
      POSITION 9
      SNAPOFFS 0
      LENGTH 20
      LOOP 1
      ALLTAKES 0
      FADEIN 1 0 0 1 0 0
      FADEOUT 1 0 0 1 0 0
      MUTE 0
      SEL 0
      YPOS 0.516634 0.05
      IGUID {D2976DC3-6BEA-3F45-8EDE-4D14EF55B549}
      IID 39
      NAME "tuba(s) - National_Anthems_-_Argentina.mid"
      VOLPAN 1 0 1 -1
      SOFFS 9 18
      PLAYRATE 1 1 0 -1 0 0.0025
      CHANMODE 0
      GUID {2A6AFED6-464E-5F45-9EE6-FB5F3D1F0CB7}
      <SOURCE MIDI
        HASDATA 1 480 QN
        POOLEDEVTS {7CD4DDD5-9576-584D-94FA-B4424ABE8954}
        <X 0 0 0 0 3 tuba(s)
          /wN0dWJhKHMp
        >
        <X 0 0 0 0 4 "Sound Canvas"
          /wRTb3VuZCBDYW52YXM=
        >
        E 0 93 22 6d
        E 854 83 22 4f
        E 88 93 26 62
        E 732 83 26 3f
        E 112 93 22 67
        E 114 83 22 49
        E 12 93 29 5a
        E 1235 83 29 3e
        E 192 93 27 6a
        E 282 83 27 43
        E 61 93 24 62
        E 155 83 24 35
        E 14 93 21 57
        E 366 83 21 35
        E 92 93 1d 62
        E 362 83 1d 0e
        E 128 93 1d 62
        E 379 83 1d 36
        E 121 93 1d 65
        E 351 83 1d 37
        E 127 93 1d 6a
        E 923 93 22 6a
        E 14 83 1d 4a
        E 1080 83 22 51
        E 846 93 22 6a
        E 509 83 22 19
        E 438 93 22 6a
        E 503 83 22 5c
        E 696 93 22 65
        E 77 83 22 3c
        E 79 93 22 67
        E 69 83 22 52
        E 14 93 26 6a
        E 228 83 26 40
        E 9 93 29 65
        E 155 83 29 33
        E 92 93 2e 67
        E 394 83 2e 31
        E 84 93 2e 62
        E 236 83 2e 3a
        E 119 93 2e 5d
        E 94 83 2e 34
        E 36 93 27 6a
        E 432 83 27 01
        E 56 93 24 65
        E 164 83 24 2f
        E 169 93 24 5a
        E 108 83 24 2a
        E 28 93 29 6d
        E 442 83 29 12
        E 67 93 1d 57
        E 389 83 1d 01
        E 73 93 22 6d
        E 234 93 2e 67
        E 31 83 22 1b
        E 116 83 2e 31
        E 107 93 29 6d
        E 127 83 29 3e
        E 104 93 26 65
        E 131 83 26 34
        E 128 93 22 62
        E 412 83 22 50
        E 544 93 22 67
        E 207 93 2e 5d
        E 26 83 22 1c
        E 163 83 2e 1f
        E 70 93 29 67
        E 124 83 29 1f
        E 115 93 26 4a
        E 149 83 26 41
        E 93 93 22 67
        E 372 83 22 21
        E 115 93 24 5f
        E 392 83 24 3e
        E 332 93 1d 67
        E 75 83 1d 3e
        E 56 93 1d 62
        E 82 83 1d 23
        E 8 93 21 73
        E 164 83 21 2c
        E 67 93 24 67
        E 152 83 24 1f
        E 77 93 29 6d
        E 375 83 29 39
        E 88 93 21 6d
        E 259 83 21 44
        E 91 93 21 65
        E 89 83 21 4a
        E 39 93 22 6d
        E 419 83 22 2d
        E 91 93 22 6a
        E 333 93 1f 67
        E 4 83 22 01
        E 109 83 1f 24
        E 34 93 24 67
        E 426 83 24 26
        E 77 93 24 62
        E 385 83 24 20
        E 82 93 29 6a
        E 154 83 29 54
        E 77 93 29 67
        E 167 83 29 40
        E 65 93 24 62
        E 171 83 24 28
        E 56 93 21 65
        E 219 83 21 0a
        E 24 93 1d 65
        E 134 83 1d 28
        E 110 93 1d 65
        E 211 83 1d 12
        E 27 93 1f 6a
        E 180 83 1f 2d
        E 50 93 21 67
        E 182 83 21 20
        E 76 93 22 6f
        E 1352 83 22 01
        E 85 93 25 6a
        E 387 83 25 21
        E 119 93 1d 6a
        E 893 83 1d 36
        E 35 93 1d 4b
        E 399 83 1d 41
        E 578 93 22 6a
        E 15 83 22 00
        E 0 b0 7b 00
        GUID {644A84F4-10E7-6D42-B8B9-FAC43590AF6D}
        IGNTEMPO 0 120 4 4
        SRCCOLOR 1023
        VELLANE -1 86 6
      >
    >
    <ITEM
      POSITION 9
      SNAPOFFS 0
      LENGTH 20
      LOOP 1
      ALLTAKES 0
      FADEIN 1 0 0 1 0 0
      FADEOUT 1 0 0 1 0 0
      MUTE 0
      SEL 0
      YPOS 0.688845 0.05
      IGUID {8370C7E2-C9AA-1E49-BEC7-745FC5597045}
      IID 40
      NAME "strings (hi) - National_Anthems_-_Argentina.mid"
      VOLPAN 1 0 1 -1
      SOFFS 9 18
      PLAYRATE 1 1 0 -1 0 0.0025
      CHANMODE 0
      GUID {841C2023-8457-314B-BED7-34C8FD34C5AC}
      <SOURCE MIDI
        HASDATA 1 480 QN
        POOLEDEVTS {47DCA099-2C2B-FD4F-953F-A2CFD287959F}
        <X 0 0 0 0 3 "strings (hi)"
          /wNzdHJpbmdzIChoaSk=
        >
        <X 0 0 0 0 4 "Sound Canvas"
          /wRTb3VuZCBDYW52YXM=
        >
        E 0 94 46 55
        E 938 94 4a 48
        E 38 84 46 30
        E 637 84 4a 35
        E 160 94 46 5a
        E 136 94 4d 5d
        E 4 84 46 33
        E 1069 84 4d 2b
        E 322 94 4b 62
        E 337 84 4b 24
        E 10 94 48 4a
        E 161 84 48 2b
        E 7 94 45 55
        E 393 84 45 2d
        E 97 94 45 55
        E 370 84 45 02
        E 118 94 45 4f
        E 309 84 45 0d
        E 169 94 45 4f
        E 322 84 45 17
        E 165 94 45 4f
        E 700 94 46 55
        E 25 84 45 2b
        E 101 94 48 4d
        E 1 84 46 3f
        E 141 84 48 25
        E 3 94 46 55
        E 993 84 46 55
        E 200 94 41 5d
        E 7 94 4d 45
        E 203 84 4d 21
        E 12 94 4f 4f
        E 5 94 43 5a
        E 11 84 41 3a
        E 188 84 4f 01
        E 9 84 43 3c
        E 13 94 45 4f
        E 6 94 51 4d
        E 234 84 45 01
        E 10 84 51 01
        E 5 94 46 65
        E 1 94 52 5a
        E 366 84 52 30
        E 9 84 46 46
        E 88 94 46 62
        E 3 94 52 55
        E 330 94 4a 48
        E 4 84 46 3a
        E 6 94 56 4f
        E 16 84 52 24
        E 71 84 56 45
        E 30 84 4a 3f
        E 30 94 54 4f
        E 5 94 48 4f
        E 198 84 48 0d
        E 23 94 46 5f
        E 4 84 54 3d
        E 1 94 52 41
        E 169 84 52 13
        E 30 84 46 38
        E 25 94 45 5f
        E 12 94 51 4e
        E 284 84 45 01
        E 43 84 51 01
        E 21 94 43 55
        E 10 94 4f 4b
        E 103 84 4f 2d
        E 4 84 43 60
        E 45 94 41 4b
        E 2 94 4d 4a
        E 695 94 4a 4e
        E 1 94 3e 4a
        E 13 84 4d 38
        E 35 84 41 01
        E 206 84 4a 3c
        E 11 94 46 41
        E 2 94 3a 4e
        E 15 84 3e 18
        E 335 84 46 51
        E 4 84 3a 4f
        E 129 94 3e 5a
        E 15 94 4a 5d
        E 289 84 3e 33
        E 7 84 4a 18
        E 3 94 4d 55
        E 0 94 41 4f
        E 127 84 41 28
        E 22 84 4d 19
        E 4 94 4b 5f
        E 1 94 3f 5d
        E 424 84 4b 38
        E 1 84 3f 3c
        E 49 94 3f 62
        E 6 94 4b 5a
        E 337 94 43 52
        E 3 94 4f 57
        E 2 84 4b 3f
        E 26 84 3f 1a
        E 93 84 4f 37
        E 17 94 4d 48
        E 9 94 41 4b
        E 4 84 43 32
        E 441 84 4d 26
        E 4 84 41 32
        E 8 94 4f 5a
        E 13 94 43 57
        E 338 84 4f 01
        E 5 94 51 52
        E 2 94 45 4f
        E 10 84 43 25
        E 118 84 51 24
        E 8 94 52 5a
        E 4 94 46 62
        E 2 84 45 41
        E 1037 84 46 51
        E 5 84 52 4d
        E 296 94 3a 67
        E 1 94 46 62
        E 48 84 3a 45
        E 7 84 46 46
        E 55 94 46 67
        E 1 94 3a 67
        E 260 84 3a 39
        E 40 94 3c 4d
        E 22 84 46 23
        E 1 94 48 48
        E 131 84 3c 23
        E 16 94 3e 42
        E 0 94 4a 4e
        E 21 84 48 46
        E 395 84 3e 41
        E 6 84 4a 39
        E 54 94 4a 4d
        E 4 94 3e 4d
        E 219 84 3e 2a
        E 17 84 4a 32
        E 118 94 3e 45
        E 4 94 4a 52
        E 49 84 3e 3b
        E 16 84 4a 38
        E 51 94 3e 5a
        E 8 94 4a 5a
        E 191 84 3e 22
        E 8 84 4a 06
        E 2 94 41 4d
        E 5 94 4d 4d
        E 202 84 4d 03
        E 6 84 41 13
        E 30 94 40 4f
        E 11 94 4c 55
        E 356 84 4c 01
        E 2 84 40 26
        E 3 94 43 4b
        E 2 94 4f 48
        E 57 84 43 42
        E 9 84 4f 3d
        E 59 94 43 5a
        E 1 94 4f 4b
        E 472 84 4f 2c
        E 7 84 43 24
        E 5 94 41 4f
        E 1 94 4d 3d
        E 735 84 4d 23
        E 16 84 41 01
        E 185 94 41 5a
        E 14 94 4d 4f
        E 316 94 45 3f
        E 9 94 51 4a
        E 2 84 41 01
        E 2 84 4d 01
        E 84 84 51 1a
        E 17 84 45 24
        E 37 94 4f 4d
        E 1 94 43 4f
        E 389 84 4f 31
        E 7 84 43 3a
        E 81 94 43 5d
        E 7 94 4f 4e
        E 311 94 46 5a
        E 2 84 4f 3b
        E 6 94 52 62
        E 4 84 43 17
        E 156 84 46 1e
        E 8 94 40 55
        E 4 84 52 30
        E 4 94 4c 48
        E 343 84 40 20
        E 36 84 4c 2b
        E 100 94 40 4f
        E 17 94 4c 52
        E 305 84 4c 05
        E 7 94 43 4f
        E 10 84 40 2a
        E 2 94 4f 44
        E 115 84 43 30
        E 7 84 4f 01
        E 21 94 4d 52
        E 4 94 41 4e
        E 1144 84 41 51
        E 6 84 4d 3f
        E 39 94 4d 5a
        E 2 94 41 5f
        E 223 94 43 65
        E 5 84 41 44
        E 6 94 4f 5f
        E 2 84 4d 1d
        E 206 84 4f 16
        E 3 84 43 40
        E 7 94 45 55
        E 4 94 51 62
        E 243 84 45 01
        E 1 94 46 5f
        E 3 94 52 5a
        E 1 84 51 3f
        E 475 94 41 55
        E 9 94 4d 5f
        E 4 84 46 2d
        E 7 84 52 48
        E 165 84 41 39
        E 42 84 4d 36
        E 128 94 41 57
        E 6 94 4d 4a
        E 115 94 4e 65
        E 6 94 42 5d
        E 1 84 41 45
        E 2 84 4d 43
        E 209 84 4e 43
        E 5 84 42 2f
        E 4 94 41 4f
        E 6 94 4d 4d
        E 214 84 4d 2c
        E 2 84 41 46
        E 4 94 3f 5a
        E 8 94 4b 5a
        E 221 84 4b 01
        E 26 94 49 55
        E 8 94 3d 4e
        E 14 84 3f 58
        E 78 84 3d 3f
        E 39 84 49 18
        E 104 94 3d 5f
        E 11 94 49 5a
        E 956 84 3d 21
        E 36 84 49 3b
        E 3 94 3c 4f
        E 6 94 48 4d
        E 133 84 48 53
        E 109 84 3c 53
        E 16 94 41 4f
        E 200 84 41 2a
        E 10 94 43 5a
        E 222 84 43 2b
        E 11 94 45 55
        E 232 84 45 48
        E 4 94 46 62
        E 19 84 46 00
        E 0 b0 7b 00
        GUID {6991CA68-2C62-BB4C-BFED-2E1C6A0BC93D}
        IGNTEMPO 0 120 4 4
        SRCCOLOR 1024
        VELLANE -1 86 6
      >
    >
    <ITEM
      POSITION 9
      SNAPOFFS 0
      LENGTH 20
      LOOP 1
      ALLTAKES 0
      FADEIN 1 0 0 1 0 0
      FADEOUT 1 0 0 1 0 0
      MUTE 0
      SEL 0
      YPOS 0.861057 0.05
      IGUID {4EF565CB-48B7-7646-9E5E-82E1070A7483}
      IID 41
      NAME "strings (mid) - National_Anthems_-_Argentina.mid"
      VOLPAN 1 0 1 -1
      SOFFS 9 18
      PLAYRATE 1 1 0 -1 0 0.0025
      CHANMODE 0
      GUID {B1EA5F72-27EA-C84D-A13D-2635390A9E41}
      <SOURCE MIDI
        HASDATA 1 480 QN
        POOLEDEVTS {AF721FB0-0453-B84A-9E53-92A65D095D8D}
        <X 0 0 0 0 3 "strings (mid)"
          /wNzdHJpbmdzIChtaWQp
        >
        <X 0 0 0 0 4 "Sound Canvas"
          /wRTb3VuZCBDYW52YXM=
        >
        E 0 95 3a 62
        E 944 85 3a 01
        E 12 95 3e 65
        E 614 85 3e 01
        E 162 95 3a 67
        E 163 95 41 67
        E 13 85 3a 3b
        E 1252 85 41 31
        E 167 95 3f 5f
        E 319 85 3f 39
        E 0 95 3c 5a
        E 165 85 3c 44
        E 4 95 39 65
        E 356 85 39 11
        E 123 95 39 5a
        E 355 85 39 01
        E 135 95 39 5a
        E 322 85 39 17
        E 155 95 39 52
        E 339 85 39 13
        E 167 95 39 5a
        E 702 95 3a 5f
        E 9 85 39 36
        E 105 85 3a 2b
        E 12 95 3c 4f
        E 150 85 3c 01
        E 7 95 3a 4f
        E 997 85 3a 3f
        E 891 95 3e 4d
        E 387 85 3e 23
        E 90 95 3e 55
        E 305 95 46 5d
        E 26 85 3e 01
        E 128 85 46 46
        E 9 95 45 4b
        E 228 85 45 38
        E 6 95 43 55
        E 213 85 43 44
        E 15 95 41 52
        E 279 85 41 01
        E 69 95 3f 5a
        E 112 85 3f 2e
        E 15 95 3e 4f
        E 692 85 3e 48
        E 66 95 3e 37
        E 187 85 3e 1b
        E 537 95 46 62
        E 8 95 41 48
        E 247 85 46 39
        E 36 85 41 1e
        E 37 95 4a 4f
        E 8 95 46 42
        E 62 85 46 01
        E 16 85 4a 28
        E 54 95 43 4d
        E 2 95 48 4a
        E 394 85 48 35
        E 1 85 43 2b
        E 76 95 48 47
        E 3 95 43 4a
        E 325 85 48 23
        E 29 95 4b 4a
        E 0 95 48 44
        E 11 85 43 2b
        E 107 85 48 38
        E 7 85 4b 34
        E 23 95 46 4a
        E 7 95 4a 4b
        E 417 85 4a 01
        E 31 85 46 35
        E 7 95 4b 4e
        E 6 95 48 47
        E 150 85 48 3a
        E 3 85 4b 3b
        E 187 95 4b 48
        E 4 95 48 44
        E 118 85 48 3f
        E 9 85 4b 2b
        E 2 95 4d 3d
        E 1 95 4a 47
        E 1157 85 4a 43
        E 2 85 4d 3b
        E 775 95 3a 55
        E 415 85 3a 4c
        E 49 95 3a 5a
        E 276 85 3a 48
        E 76 95 3a 4d
        E 63 85 3a 45
        E 62 95 3a 4d
        E 452 85 3a 1c
        E 27 95 3c 4f
        E 325 85 3c 23
        E 13 95 3a 4d
        E 58 85 3a 3d
        E 74 95 3a 44
        E 490 95 39 48
        E 7 85 3a 01
        E 597 85 39 3f
        E 351 95 45 45
        E 2 95 48 44
        E 242 85 48 27
        E 6 85 45 29
        E 77 95 45 4a
        E 2 95 48 42
        E 78 85 48 2e
        E 4 85 45 31
        E 88 95 4a 4a
        E 7 95 46 47
        E 376 85 4a 2c
        E 5 85 46 32
        E 97 95 4a 4a
        E 3 95 46 5f
        E 202 85 4a 0b
        E 16 85 46 40
        E 76 95 4a 48
        E 4 95 4f 55
        E 105 85 4f 46
        E 4 85 4a 45
        E 62 95 46 4d
        E 1 95 43 4b
        E 402 85 46 3a
        E 4 85 43 26
        E 78 95 46 5a
        E 4 95 43 4d
        E 172 85 46 2e
        E 11 85 43 1d
        E 137 95 46 4b
        E 4 95 43 57
        E 86 85 43 39
        E 46 95 48 41
        E 1 85 46 41
        E 14 95 45 42
        E 971 85 48 3a
        E 27 85 45 25
        E 195 95 41 4f
        E 201 85 41 01
        E 13 95 43 55
        E 194 85 43 01
        E 40 95 45 57
        E 113 85 45 3f
        E 132 95 46 5a
        E 7 95 49 4f
        E 431 85 46 36
        E 4 85 49 28
        E 69 95 49 5a
        E 6 95 46 44
        E 157 85 46 2e
        E 99 85 49 4b
        E 63 95 49 5f
        E 131 85 49 01
        E 15 95 4b 4d
        E 211 95 49 55
        E 5 85 4b 21
        E 211 85 49 15
        E 20 95 48 45
        E 248 85 48 15
        E 1 95 46 5a
        E 155 85 46 0a
        E 93 95 46 5a
        E 959 85 46 37
        E 14 95 45 4e
        E 142 85 45 35
        E 115 95 41 5a
        E 216 85 41 41
        E 6 95 40 4b
        E 232 85 40 16
        E 1 95 3f 4a
        E 226 85 3f 01
        E 40 b0 7b 00
        GUID {C05DB69F-815D-D843-8C4E-5B8CE14A238A}
        IGNTEMPO 0 120 4 4
        SRCCOLOR 1025
        VELLANE -1 86 6
      >
    >
    <ITEM
      POSITION 9
      SNAPOFFS 0
      LENGTH 20
      LOOP 1
      ALLTAKES 0
      FADEIN 1 0 0 1 0 0
      FADEOUT 1 0 0 1 0 0
      MUTE 0
      SEL 0
      YPOS 0 0.05
      IGUID {2198D5FC-C8F2-9249-BCE6-8EFCD47C0AA0}
      IID 36
      NAME "trumpet(s) - National_Anthems_-_Argentina.mid"
      VOLPAN 1 0 1 -1
      SOFFS 9 18
      PLAYRATE 1 1 0 -1 0 0.0025
      CHANMODE 0
      TAKECOLOR 26173599 B
      GUID {71594FA1-A94C-E94E-95DF-5ADDA159C0A7}
      <SOURCE MIDI
        HASDATA 1 480 QN
        POOLEDEVTS {C367E600-7FFC-BD40-9F0F-7506ADB3DFFD}
        <X 0 0 0 0 3 trumpet(s)
          /wN0cnVtcGV0KHMp
        >
        <X 0 0 0 0 4 "Sound Canvas"
          /wRTb3VuZCBDYW52YXM=
        >
        E 0 90 46 7f
        E 840 80 46 3a 30
        E 120 90 4a 7f -9
        E 720 80 4a 18 -11
        E 120 90 46 7f -30
        E 120 80 46 39 -51
        E 0 90 4d 7f -12
        E 1200 80 4d 25 55
        E 240 90 4b 7f -8
        E 240 80 4b 23 40
        E 120 90 48 7f -50
        E 120 80 48 31 -93
        E 0 90 45 7f -7
        E 360 80 45 02 -5
        E 120 90 45 7f -8
        E 360 80 45 01 -2
        E 120 90 45 7f -12
        E 360 80 45 01 23
        E 120 90 45 7f -18
        E 360 80 45 01 -14
        E 120 90 45 7f -16
        E 720 90 46 7f 37
        E 120 80 45 27 -50
        E 0 80 46 3e
        E 0 90 48 7f 11
        E 120 80 48 18 -11
        E 0 90 46 7f -5
        E 1080 80 46 43 -18
        E 120 90 41 7f -3
        E 120 80 41 1c 46
        E 120 90 43 7f -20
        E 120 80 43 3a 18
        E 120 90 45 7f -27
        E 120 80 45 2b -24
        E 120 90 46 7f
        E 360 80 46 4c 49
        E 120 90 46 7f
        E 240 80 46 43 55
        E 120 90 4a 7f -32
        E 120 80 4a 18 -51
        E 0 90 48 7f -22
        E 240 80 48 33 -55
        E 0 90 46 7f -35
        E 120 80 46 2b 20
        E 120 90 45 7f -34
        E 240 80 45 2c 7
        E 120 90 43 7f -33
        E 120 80 43 35 -73
        E 0 90 41 7f -41
        E 720 80 41 43 -45
        E 0 90 3e 7f -25
        E 240 80 3e 2a -30
        E 0 90 3a 7f -24
        E 360 80 3a 3d -31
        E 120 90 3e 7f -8
        E 240 80 3e 01 26
        E 120 90 41 7f -25
        E 120 80 41 11 -48
        E 0 90 3f 7f -16
        E 360 80 3f 3b 39
        E 120 90 3f 7f -7
        E 240 80 3f 29 53
        E 120 90 43 7f -33
        E 120 80 43 2f -36
        E 0 90 41 7f 3
        E 480 80 41 01 -24
        E 0 90 43 7f -7
        E 240 80 43 38 27
        E 120 90 45 7f -32
        E 120 80 45 28 -69
        E 0 90 46 7f
        E 960 80 46 51 35
        E 360 90 3a 7f -26
        E 120 80 3a 52 -57
        E 0 90 3a 7f
        E 240 80 3a 3b 6
        E 120 90 3c 7f -53
        E 120 80 3c 38 -44
        E 0 90 3e 7f 6
        E 360 80 3e 3f 38
        E 120 90 3e 7f -6
        E 240 80 3e 32 1
        E 120 90 3e 7f -21
        E 120 80 3e 36 -77
        E 0 90 3e 7f -19
        E 240 80 3e 25 -21
        E 0 90 41 7f -14
        E 240 80 41 01 -29
        E 0 90 40 7f -15
        E 240 80 40 1d 17
        E 120 90 43 7f -36
        E 120 80 43 2c -28
        E 0 90 43 7f
        E 480 80 43 4c 36
        E 0 90 41 7f 27
        E 600 80 41 1f 39
        E 360 90 41 7f 6
        E 240 80 41 01 17
        E 120 90 45 7f -46
        E 120 80 45 2f -60
        E 0 90 43 7f -21
        E 360 80 43 3e 26
        E 120 90 43 7f -2
        E 240 80 43 26 47
        E 120 90 46 7f -39
        E 120 80 46 4a 44
        E 0 90 40 7f 29
        E 480 80 40 33 -50
        E 0 90 40 7f 1
        E 240 80 40 0e 50
        E 120 90 43 7f -25
        E 120 80 43 37 -43
        E 0 90 41 7f
        E 960 80 41 50 20
        E 240 90 4d 7f -3
        E 120 80 4d 3c 24
        E 120 90 4f 7f -4
        E 120 80 4f 32 29
        E 120 90 51 7f -15
        E 120 80 51 26 26
        E 120 90 52 7f -6
        E 480 80 52 40 -7
        E 0 90 4d 7f 6
        E 240 80 4d 3a -34
        E 120 90 4d 7f -13
        E 120 80 4d 44 -49
        E 0 90 4e 7f -17
        E 240 80 4e 29 -30
        E 0 90 4d 7f -16
        E 120 80 4d 19 27
        E 120 90 4b 7f -35
        E 120 80 4b 01 24
        E 120 90 49 7f -34
        E 120 80 49 2a 9
        E 120 90 49 7f -8
        E 960 80 49 48 -15
        E 0 90 48 7f 11
        E 120 80 48 45 56
        E 120 90 41 7f 1
        E 120 80 41 44 9
        E 120 90 43 7f -1
        E 120 80 43 41 21
        E 120 90 45 7f -25
        E 120 80 45 01 23
        E 120 b0 7b 00
        GUID {A9C7CB40-05D1-FF46-A367-EB779E7EF9A3}
        IGNTEMPO 0 120 4 4
        SRCCOLOR 1065
        VELLANE -1 86 6
        CFGEDITVIEW 7680 67.818182 0 7 0 0 0 0 0 0.5
        KEYSNAP 0
        TRACKSEL 226
        EVTFILTER 0 -1 -1 -1 -1 0 0 0 0 -1 -1 -1 -1 0 -1 0 -1 -1
        CFGEDIT 1 0 0 0 0 0 1 0 1 1 1 0.25 32 36 1920 1178 0 0 2 3 0 0 0 0 0 0.5 0 0 1 64
      >
      TAKE
      NAME "trumpet(s) - National_Anthems_-_Argentina.mid"
      TAKEVOLPAN 0 1 -1
      SOFFS 9 18
      PLAYRATE 1 1 0 -1 0 0.0025
      CHANMODE 0
      GUID {FD10F0DC-E4AE-2144-A99D-31983E49514D}
      <SOURCE MIDI
        HASDATA 1 480 QN
        POOLEDEVTS {49399978-FF59-A043-BF57-F2255127554F}
        <X 0 0 0 0 3 trumpet(s)
          /wN0cnVtcGV0KHMp
        >
        <X 0 0 0 0 4 "Sound Canvas"
          /wRTb3VuZCBDYW52YXM=
        >
        e 0 90 46 7f
        e 870 80 46 3a
        e 81 90 4a 7f
        e 718 80 4a 18
        e 101 90 46 7f
        e 99 80 46 39
        e 39 90 4d 7f
        e 1267 80 4d 25
        e 177 90 4b 7f
        e 288 80 4b 23
        e 30 90 48 7f
        e 77 80 48 31
        e 86 90 45 7f
        e 362 80 45 02
        e 117 90 45 7f
        e 366 80 45 01
        e 110 90 45 7f
        e 395 80 45 01
        e 79 90 45 7f
        e 364 80 45 01
        e 118 90 45 7f
        e 773 90 46 7f
        e 33 80 45 27
        e 50 80 46 3e
        e 11 90 48 7f
        e 98 80 48 18
        e 6 90 46 7f
        e 1067 80 46 43
        e 135 90 41 7f
        e 169 80 41 1c
        e 54 90 43 7f
        e 158 80 43 3a
        e 75 90 45 7f
        e 123 80 45 2b
        e 144 90 46 7f
        e 409 80 46 4c
        e 71 90 46 7f
        e 295 80 46 43
        e 33 90 4a 7f
        e 101 80 4a 18
        e 29 90 48 7f
        e 207 80 48 33
        e 20 90 46 7f
        e 175 80 46 2b
        e 66 90 45 7f
        e 281 80 45 2c
        e 80 90 43 7f
        e 80 80 43 35
        e 32 90 41 7f
        e 716 80 41 43
        e 20 90 3e 7f
        e 235 80 3e 2a
        e 6 90 3a 7f
        e 353 80 3a 3d
        e 143 90 3e 7f
        e 274 80 3e 01
        e 69 90 41 7f
        e 97 80 41 11
        e 32 90 3f 7f
        e 415 80 3f 3b
        e 74 90 3f 7f
        e 300 80 3f 29
        e 34 90 43 7f
        e 117 80 43 2f
        e 39 90 41 7f
        e 453 80 41 01
        e 17 90 43 7f
        e 274 80 43 38
        e 61 90 45 7f
        e 83 80 45 28
        e 69 90 46 7f
        e 995 80 46 51
        e 299 90 3a 7f
        e 89 80 3a 52
        e 57 90 3a 7f
        e 246 80 3a 3b
        e 61 90 3c 7f
        e 129 80 3c 38
        e 50 90 3e 7f
        e 392 80 3e 3f
        e 76 90 3e 7f
        e 247 80 3e 32
        e 98 90 3e 7f
        e 64 80 3e 36
        e 58 90 3e 7f
        e 238 80 3e 25
        e 7 90 41 7f
        e 225 80 41 01
        e 14 90 40 7f
        e 272 80 40 1d
        e 67 90 43 7f
        e 128 80 43 2c
        e 28 90 43 7f
        e 507 90 41 7f
        e 9 80 43 4c
        e 603 80 41 1f
        e 327 90 41 7f
        e 251 80 41 01
        e 57 90 45 7f
        e 106 80 45 2f
        e 39 90 43 7f
        e 407 80 43 3e
        e 92 90 43 7f
        e 289 80 43 26
        e 34 90 46 7f
        e 188 90 40 7f
        e 15 80 46 4a
        e 386 80 40 33
        e 51 90 40 7f
        e 289 80 40 0e
        e 45 90 43 7f
        e 102 80 43 37
        e 43 90 41 7f
        e 980 80 41 50
        e 217 90 4d 7f
        e 147 80 4d 3c
        e 92 90 4f 7f
        e 153 80 4f 32
        e 76 90 51 7f
        e 161 80 51 26
        e 88 90 52 7f
        e 479 80 52 40
        e 13 90 4d 7f
        e 200 80 4d 3a
        e 141 90 4d 7f
        e 84 80 4d 44
        e 32 90 4e 7f
        e 227 80 4e 29
        e 14 90 4d 7f
        e 163 80 4d 19
        e 58 90 4b 7f
        e 179 80 4b 01
        e 62 90 49 7f
        e 163 80 49 2a
        e 103 90 49 7f
        e 953 80 49 48
        e 26 90 48 7f
        e 165 80 48 45
        e 65 90 41 7f
        e 128 80 41 44
        e 110 90 43 7f
        e 142 80 43 41
        e 74 90 45 7f
        e 168 80 45 01
        e 82 90 46 7f
        e 15 80 46 00
        E 0 b0 7b 00
        GUID {9CD78557-C7F9-244C-AB9D-4C9151156086}
        IGNTEMPO 0 120 4 4
        SRCCOLOR 1066
        VELLANE -1 86 6
        CFGEDITVIEW 0 0 0 7 0 0 0 0 0 0.5
        KEYSNAP 0
        TRACKSEL 226
        EVTFILTER 0 -1 -1 -1 -1 0 0 0 0 -1 -1 -1 -1 0 -1 0 -1 -1
        CFGEDIT 1 0 0 0 0 0 1 0 1 0 1 0.25 16 20 1920 1178 0 0 2 3 0 0 0 0 0 0.5 0 0 1 64
      >
    >
    <ITEM
      POSITION 9
      SNAPOFFS 0
      LENGTH 20
      LOOP 1
      ALLTAKES 0
      FADEIN 1 0 0 1 0 0
      FADEOUT 1 0 0 1 0 0
      MUTE 0
      SEL 0
      YPOS 0.344423 0.05
      IGUID {7130869D-6B00-EA43-88DF-913E49D7C200}
      IID 38
      NAME "trombone(s) - National_Anthems_-_Argentina.mid"
      VOLPAN 1 0 1 -1
      SOFFS 9 18
      PLAYRATE 1 1 0 -1 0 0.0025
      CHANMODE 0
      TAKECOLOR 26173599 B
      GUID {7E678E06-8731-5044-8055-80BB9D69E0D4}
      <SOURCE MIDI
        HASDATA 1 480 QN
        POOLEDEVTS {E7707561-5008-2947-9E8A-F1AD92C2164A}
        <X 0 0 0 0 3 trombone(s)
          /wN0cm9tYm9uZShzKQ==
        >
        <X 0 0 0 0 4 "Sound Canvas"
          /wRTb3VuZCBDYW52YXM=
        >
        E 0 92 2e 7f
        E 840 82 2e 30 30
        E 120 92 32 7f -9
        E 720 82 32 01 3
        E 120 92 2e 7f -36
        E 120 82 2e 43 -18
        E 0 92 35 7f -2
        E 1320 82 35 2c 6
        E 120 92 33 7f -5
        E 240 82 33 1c 24
        E 120 92 30 7f -52
        E 120 82 30 01 -17
        E 0 92 2d 7f -12
        E 360 82 2d 13 31
        E 120 92 30 7f 5
        E 0 92 33 7f 5
        E 240 82 30 01 18
        E 0 82 33 42 -17
        E 240 92 30 7f -6
        E 0 92 33 7f -8
        E 240 82 30 01 -7
        E 0 82 33 1c 10
        E 240 92 30 7f -6
        E 0 92 33 7f -6
        E 240 82 30 1d 11
        E 0 82 33 0a -23
        E 240 92 30 7f 2
        E 0 92 33 7f
        E 960 82 30 0d 10
        E 0 82 33 08 7
        E 0 92 32 7f 22
        E 1080 82 32 58 -40
        E 840 92 2e 7f -32
        E 600 82 2e 21 56
        E 360 92 2e 7f -11
        E 480 82 2e 48 44
        E 720 92 2e 7f -18
        E 120 82 2e 43 3
        E 0 92 2e 7f 53
        E 120 82 2e 43 3
        E 0 92 32 7f -27
        E 120 82 32 21 28
        E 120 92 35 7f -27
        E 120 82 35 01 6
        E 120 92 3a 7f -13
        E 360 82 3a 1d 31
        E 120 92 2e 7f -2
        E 240 82 2e 01 -55
        E 120 92 2e 7f -9
        E 120 82 2e 15 -65
        E 0 92 33 7f 8
        E 360 82 33 01 30
        E 120 92 30 7f 16
        E 240 82 30 11 -15
        E 120 92 30 7f -20
        E 120 82 30 23 -30
        E 0 92 35 7f -9
        E 360 82 35 12 8
        E 120 92 35 7f 18
        E 480 82 35 22 -26
        E 0 92 2e 7f 21
        E 120 82 2e 15 9
        E 120 92 3a 7f 6
        E 120 82 3a 15 24
        E 120 92 35 7f 3
        E 120 82 35 1c 32
        E 120 92 32 7f -14
        E 120 82 32 01 17
        E 120 92 2e 7f 3
        E 360 82 2e 4d 37
        E 600 92 2e 7f 6
        E 240 82 2e 1f -13
        E 0 92 3a 7f 4
        E 120 82 3a 21
        E 120 92 35 7f -9
        E 120 82 35 1f -14
        E 120 92 32 7f 1
        E 120 82 32 35 12
        E 120 92 2e 7f 1
        E 360 82 2e 01 14
        E 120 92 30 7f 3
        E 360 82 30 4c 39
        E 360 92 29 7f -6
        E 120 82 29 35 -69
        E 0 92 29 7f 41
        E 120 82 29 3f -3
        E 0 92 2d 7f -17
        E 240 82 2d 1d -39
        E 0 92 30 7f -20
        E 240 82 30 25 -11
        E 0 92 35 7f -16
        E 360 82 35 36 -44
        E 120 92 2d 7f -24
        E 120 82 2d 01 53
        E 240 92 2d 7f -26
        E 120 82 2d 3f -42
        E 0 92 2e 7f -12
        E 360 82 2e 15 -26
        E 120 92 2e 7f -22
        E 360 82 2e 01 -13
        E 0 92 2b 7f -27
        E 120 82 2b 0f -37
        E 0 92 30 7f -9
        E 360 82 30 36 -17
        E 120 92 30 7f -15
        E 240 82 30 3e 16
        E 120 92 30 7f -32
        E 120 82 30 01 1
        E 240 92 35 7f -25
        E 120 82 35 04 33
        E 120 92 30 7f -12
        E 120 82 30 27 33
        E 120 92 2d 7f -28
        E 120 82 2d 20 34
        E 120 92 29 7f -35
        E 120 82 29 39 -3
        E 120 92 35 7f -12
        E 240 82 35 01 -55
        E 0 92 37 7f -20
        E 240 82 37 01 -59
        E 0 92 39 7f -40
        E 120 82 39 1e -13
        E 120 92 3a 7f -19
        E 1320 82 3a 24 -20
        E 120 92 31 7f -20
        E 360 82 31 01 30
        E 120 92 35 7f -22
        E 840 82 35 30 11
        E 120 92 35 7f -32
        E 360 82 35 4c 42
        E 600 b0 7b 00
        GUID {B1C16377-89F8-DF45-8E87-B485FACF7DE7}
        IGNTEMPO 0 120 4 4
        SRCCOLOR 1022
        VELLANE -1 86 6
        CFGEDITVIEW 7680 67.818182 0 7 0 0 0 0 0 0.5
        KEYSNAP 0
        TRACKSEL 226
        EVTFILTER 0 -1 -1 -1 -1 0 0 0 0 -1 -1 -1 -1 0 -1 0 -1 -1
        CFGEDIT 1 0 0 0 0 0 1 0 1 1 1 0.25 32 36 1920 1178 0 0 2 3 0 0 0 0 0 0.5 0 0 1 64
      >
      TAKE
      NAME "trombone(s) - National_Anthems_-_Argentina.mid"
      TAKEVOLPAN 0 1 -1
      SOFFS 9 18
      PLAYRATE 1 1 0 -1 0 0.0025
      CHANMODE 0
      GUID {63FD7E3E-308C-0941-A181-284143EEE5BE}
      <SOURCE MIDI
        HASDATA 1 480 QN
        POOLEDEVTS {79FE4352-D5CA-1740-9E6F-93A79CB9223E}
        <X 0 0 0 0 3 trombone(s)
          /wN0cm9tYm9uZShzKQ==
        >
        <X 0 0 0 0 4 "Sound Canvas"
          /wRTb3VuZCBDYW52YXM=
        >
        E 0 92 2e 62
        E 870 82 2e 30
        E 81 92 32 5f
        E 732 82 32 01
        E 81 92 2e 67
        E 138 82 2e 43
        E 16 92 35 6a
        E 1328 82 35 2c
        E 109 92 33 67
        E 269 82 33 1c
        E 44 92 30 47
        E 155 82 30 01
        E 5 92 2d 5f
        E 403 82 2d 13
        E 94 92 33 4d
        E 0 92 30 48
        E 218 82 33 42
        E 35 82 30 01
        E 214 92 33 55
        E 2 92 30 4a
        E 239 82 30 01
        E 17 82 33 1c
        E 224 92 30 47
        E 0 92 33 4a
        E 223 82 33 0a
        E 34 82 30 1d
        E 229 92 33 4e
        E 2 92 30 48
        E 965 82 33 08
        E 3 82 30 0d
        E 12 92 32 52
        E 1018 82 32 58
        E 848 92 2e 5d
        E 688 82 2e 21
        E 293 92 2e 62
        E 535 82 2e 48
        E 658 92 2e 65
        E 141 82 2e 43
        E 50 92 2e 62
        E 40 92 32 6a
        E 30 82 2e 43
        E 145 82 32 21
        E 65 92 35 6a
        E 153 82 35 01
        E 101 92 3a 4d
        E 404 82 3a 1d
        E 87 92 2e 62
        E 187 82 2e 01
        E 166 92 2e 4d
        E 64 82 2e 15
        E 73 92 33 49
        E 382 82 33 01
        E 106 92 30 5a
        E 209 82 30 11
        E 115 92 30 44
        E 110 82 30 23
        E 21 92 35 5d
        E 377 82 35 12
        E 130 92 35 55
        E 436 82 35 22
        E 47 92 2e 4d
        E 108 82 2e 15
        E 117 92 3a 5a
        E 138 82 3a 15
        E 99 92 35 67
        E 149 82 35 1c
        E 74 92 32 4b
        E 151 82 32 01
        E 106 92 2e 55
        E 394 82 2e 4d
        E 569 92 2e 5f
        E 221 82 2e 1f
        E 17 92 3a 4d
        E 116 82 3a 21
        E 111 92 35 5f
        E 115 82 35 1f
        E 135 92 32 44
        E 131 82 32 35
        E 109 92 2e 5a
        E 373 82 2e 01
        E 109 92 30 4e
        E 396 82 30 4c
        E 315 92 29 4b
        E 57 82 29 35
        E 110 92 29 52
        E 62 92 2d 65
        E 14 82 29 3f
        E 204 82 2d 1d
        E 19 92 30 57
        E 244 92 35 5f
        E 5 82 30 25
        E 327 82 35 36
        E 140 92 2d 5d
        E 197 82 2d 01
        E 161 92 2d 55
        E 104 82 2d 3f
        E 30 92 2e 62
        E 346 82 2e 15
        E 124 92 2e 55
        E 355 92 2b 52
        E 14 82 2e 01
        E 96 82 2b 0f
        E 28 92 30 48
        E 352 82 30 36
        E 122 92 30 4a
        E 271 82 30 3e
        E 72 92 30 2f
        E 153 82 30 01
        E 214 92 35 5f
        E 178 82 35 04
        E 75 92 30 55
        E 165 82 30 27
        E 59 92 2d 55
        E 182 82 2d 20
        E 51 92 29 4f
        E 152 82 29 39
        E 111 92 35 62
        E 197 82 35 01
        E 35 92 37 47
        E 201 82 37 01
        E 19 92 39 52
        E 147 82 39 1e
        E 114 92 3a 4d
        E 1319 82 3a 24
        E 120 92 31 62
        E 410 82 31 01
        E 68 92 35 6a
        E 873 82 35 30
        E 77 92 35 4d
        E 434 82 35 4c
        E 540 92 2e 62
        E 18 82 2e 00
        E 0 b0 7b 00
        GUID {FA85E58F-0F8E-E042-91D9-E3A5009E92A3}
        IGNTEMPO 0 120 4 4
        SRCCOLOR 1069
        VELLANE -1 86 6
      >
    >
  >
  <TRACK {4A6CD977-ADCC-3A4D-927C-BB2CEF4B0809}
    NAME "vst Gladiator"
    PEAKCOL 27222112
    BEAT -1
    AUTOMODE 0
    VOLPAN 0.46976747615165 0 -1 -1 1
    MUTESOLO 0 0 0
    IPHASE 0
    ISBUS 0 0
    BUSCOMP 2 0
    SHOWINMIX 1 0.6667 0.5 1 0.5 0 0 0
    FREEMODE 0
    SEL 0
    REC 0 0 0 0 0 0 0
    VU 2
    TRACKHEIGHT 0 0
    INQ 0 0 0 0.5 100 0 0 100
    NCHAN 2
    FX 1
    TRACKID {4A6CD977-ADCC-3A4D-927C-BB2CEF4B0809}
    PERF 0
    MIDIOUT -1
    MAINSEND 1 0
    <FXCHAIN
      SHOW 0
      LASTSEL 0
      DOCKED 0
      BYPASS 0 0 0
      <VST "VSTi: Gladiator (Tone2.com)" Gladiator.vst 0 "" 1412581196
        TEcyVO5e7f4AAAAAAgAAAAEAAAAAAAAAAgAAAAAAAABaBAAAAQAAAAAAEAA=
        Q2NuSwAAAGBGeENrAAAAAVQyR0wAAAABAAABB0luaXQAAAAAAAAAAAAAAAAAAAAAAAAAAAAAAAA9zMzNPMzMzTw0OVg9uFH0PXnbIz+AAAA7xJumPb52yT+AAAA7xJum
        AAAAAD6mZmY+PXCkP4AAAD7FHrk/AAAAPwAAAAAAAAA9ffO2PdDlYDy8an8/RR64AAAAAD+AAAA8NDlYPZFocz71wo87RJumPbhR6D69cKQ+PXCkP4AAAD8AAAA/A9cL
        PwAAAAAAAAAAAAAAPwAAAD8AAAA/AAAAPtmZmj8AAAAAAAAAO+VgQj24UesAAAAAPk21xDtEm6Y/S4UeAAAAAAAAAAA+64UgPpR64T1hR7A+z1woPx64Uj49cKY/AAAA
        PwAAAAAAAAAAAAAAPwAAAAAAAAAAAAAAP4AAAD+AAAAAAAAAPxHrhT8AAAA/AAAAPwAAAD8AAAAAAAAAPwAAAD8AAAA/AAAAAAAAAD8AAAA/AAAAPwAAAAAAAAA6gxJv
        P1Cj1wAAAAA/gAAAAAAAADqDEm8/AAAAAAAAAAAAAAAAAAAAPwAAAAAAAAA/gAAAAAAAAD+AAAAAAAAAPwAAAD8AAAA/AAAAPwAAAD8AAAA/AAAAPwAAAD8AAAA/AAAA
        PwAAAD8AAAA/EeuGPKPXCjqDEm88RJumAAAAAAAAAAAAAAAAPLxqfwAAAAAAAAAAAAAAAAAAAAAAAAAAAAAAAAAAAAAAAAAAAAAAAAAAAAAAAAAAAAAAAAAAAAAAAAAA
        AAAAAAAAAAA8E3S8AAAAADw0OVgAAAAAPBN0vAAAAAA8NDlYAAAAADwTdLwAAAAAPDQ5WAAAAAA8E3S8AAAAADw0OVgAAAAAPGVgQj2HKwI8ZWBCOwMSbz2JN0w7AxJv
        PLQ5WDyLQ5Y8k3S8PVT99D0XjVA8zMzNPoAAAD9ywjU/AAAAP1GnuT8wjT4/HLCNAAAAADsDEm86gxJvAAAAAAAAAAAAAAAAPwAAADqDEm87RJumP4AAAAAAAAA/gAAA
        AAAAAD+AAAAAAAAAAAAAAAAAAAAAAAAAP4AAAAAAAAA/AAAAAAAAAD8AAAA/BR64PwAAAD+AAAA/AAAAPwAAAD8AAAA/gAAAP4AAAAAAAAAAAAAAAAAAAD8AAAA/gAAA
        PwAAAAAAAAA+vXCkAAAAAAAAAAA/gAAAP4AAAD8j1wo/gAAAAAAAAAAAAAA/gAAAPwAAAAAAAAAAAAAAAAAAAAAAAAAAAAAAAAAAAAAAAAAAAAAAAAAAAAAAAAAAAAAA
        AAAAAD8AAAA/AAAAPwAAAD8AAAA/AAAAPwAAAAAAAAAAAAAAP4AAAAAAAAAAAAAAAAAAAAAAAAAAAAAAAAAAAAAAAAAAAAAAAAAAAAAAAAAAAAAAAAAAAAAAAAAAAAAA
        AAAAAAAAAAAAAAAAAAAAAAAAAAAAAAAAAAAAAAAAAAAAAAAAAAAAAAAAAAAAAAAAAAAAAAAAqqusrQ==
        AEluaXQAEAAAAA==
      >
      PRESETNAME Init
      FLOATPOS 500 379 987 799
      FXID {532372E3-5B0D-9345-A9C8-98A8EBAF9A7E}
      WAK 0
    >
  >
  <TRACK {9E2CAE92-CCC1-1F4A-BCF6-93DCFE473BDF}
    NAME "16th pulse (mix w/ send?)"
    PEAKCOL 16576
    BEAT -1
    AUTOMODE 0
    VOLPAN 1 0 -1 -1 1
    MUTESOLO 0 0 0
    IPHASE 0
    ISBUS 1 1
    BUSCOMP 0 0
    SHOWINMIX 1 0.6667 0.5 1 0.5 0 0 0
    FREEMODE 0
    SEL 0
    REC 0 0 0 0 0 0 0
    VU 2
    TRACKHEIGHT 0 0
    INQ 0 0 0 0.5 100 0 0 100
    NCHAN 4
    FX 1
    TRACKID {9E2CAE92-CCC1-1F4A-BCF6-93DCFE473BDF}
    PERF 0
    AUXRECV 3 0 1 0 0 0 0 0 0 -1:U 64 -1 ''
    AUXRECV 4 0 1 0 0 0 0 0 0 -1:U 32 -1 ''
    MIDIOUT -1
    MAINSEND 0 0
    <FXCHAIN
      WNDRECT 36 359 724 387
      SHOW 0
      LASTSEL 0
      DOCKED 0
      BYPASS 0 0 0
      <VST "VSTi: chipsounds (Plogue Art et Technologie, Inc)" chipsounds.vst 0 "" 1347176271
        T0dMUO5e7f4AAAAABAAAAAEAAAAAAAAAAgAAAAAAAAAEAAAAAAAAAAgAAAAAAAAAEgQAAAEAAAAAABAA
        Q0VHUIsaAAB4nO1ZXY+bOBR9n19h8bT7ULD5DFIyVZKZVJGa7WiTfa4c4jKofBWb6bS/fm0IAyQZ40xabVcdvwSb4+tzfa/hXDJ++5jE4IEUNMrSiYZ0qIG311fjaRHh
        NX4gnVsuNLXrK8DbeE0Yi9KQgi8ljiP2jd/VQBhnWxzfZTHvWqYGKCsITjis7ib4cV2NTOM4C1azieYgPrxa3iw/lGyV7UhlBZcsSzDjS67jjE00zocG/I5vC5MBjjEf
        Q+ANIGJtnQbxfnhOUkaKiebChsqmTKvVoQ6rpgGj4c9Ng2hXWU9xQoRJHdyVBQHz+yg31ssbw3VGCPzx12Y9/1MDW5x+XnI8gtDXQHCP05TE1fS88tfWADtaLd9+LHAa
        cutv0NMg40M0zyipZiclqy/o148xpkxYqjlWPFc4ShueDzguSRWhvjN9IHoCHnndB5qqQEsVaKsCHVWgqwr0VIEjVaCvCkRQGakcG6QcHKQcHaQcHjQUnztc4EQpiVrk
        0Oot0htI9RbZ23rbd2TQ7j6ZjtRql6ppS6FncO0mFLKkG9B1yzKl0G5K2UgK7cYKjaTQ3mbJuXY3y5VultdNK09u1e1xlQXW659oGXTUtWpJozXylaF+N1rIl2dWGwNk
        Dp0DH7aW3UFsmwjmINZUzlofqp9bH7pn2B2dgfXPeCKc4RwPgTUA3uAiJGwvEYIs0e/iLCyJLtSR/n7xQS8pKWDnjV3NmpeUa5gbzDBg33IREtNyeYBo9J13bOF6I6r4
        eiTdRbi+3PEp/KJpi/rHhD+29V00ah/PdRr9Tk7/zemSgqu7NaHCBZ0ykv8uYd8UURiSYs31NkkDUgy6jTxTvO1qtz2/47Z5ym2093rfYPW49RbQ5NfwduShQ0esubfw
        FRxG0FbGvmDTxoaoIg4LCnRZQYGagsJsCwp0YUVhvlYUrxXF/6Wi6HuEXNdTqT186FQfE4ZrD9OzXSFUfmjt4Uih3lA8n9Hzji0Vvr04SYufnki3PCmBbqRMee0xdJZe
        pLxfrpHtMzTysOb8+Rp5WKf/Zxr515K9RwLgoN0O3IenXHyVvVKnLxN9SDy1z1N9M9ETqg85cOYtZkeePK/kGoXo8peA40wdS+zl/JcdPc33oM3hqdHnmqpKvf30iQTs
        +OP3NNlGIsyHsrT5XP7un2UzAQcseiDLp2/zdf+2/VZPYr4E2W3wVvS7T6CCUMJWJC1BRBs4q6jKUw8w8sghM0wpV8CY3U80Y5rncRRUfxNQo57IRXSU06xMd3ykWosa
        ErNGncKAjwefqSGs65gf9fzguXnEGp1kPS1yEoYRZllLOI7yCwh3LBrC1CXsnttTziAhBf4J27pnn3FwvcYB/bHBk+r6amw0fzRdX/0LFvKLJg==
        AAAQAAAA
      >
      FLOATPOS 409 269 871 509
      FXID {DC79668B-30D1-964C-A162-F245DBE294B0}
      WAK 0
      BYPASS 1 0 0
      <JS Delay/time_adjustment ""
        -10.000000 0.000000 -120.000000 0.000000 - - - - - - - - - - - - - - - - - - - - - - - - - - - - - - - - - - - - - - - - - - - - - - - - - - - - - - - - - - - - 
      >
      FLOATPOS 0 4 554 157
      FXID {40721658-5454-1743-9C6A-517A806DB8F9}
      WAK 0
    >
  >
  <TRACK {4FCA358B-3FAC-3749-9BC2-11E94F70145F}
    NAME 16ths
    PEAKCOL 16576
    BEAT -1
    AUTOMODE 0
    VOLPAN 1 0 -1 -1 1
    MUTESOLO 0 0 0
    IPHASE 0
    ISBUS 0 0
    BUSCOMP 0 0
    SHOWINMIX 1 0.6667 0.5 1 0.5 0 0 0
    FREEMODE 0
    SEL 0
    REC 0 0 0 0 0 0 0
    VU 2
    TRACKHEIGHT 0 0
    INQ 0 0 0 0.5 100 0 0 100
    NCHAN 2
    FX 1
    TRACKID {4FCA358B-3FAC-3749-9BC2-11E94F70145F}
    PERF 0
    MIDIOUT -1
    MAINSEND 0 0
  >
  <TRACK {B0448BAA-9F98-5543-9DF7-CDB8296564E0}
    NAME Full
    PEAKCOL 16576
    BEAT -1
    AUTOMODE 0
    VOLPAN 1 0 -1 -1 1
    MUTESOLO 0 0 0
    IPHASE 0
    ISBUS 2 -1
    BUSCOMP 0 0
    SHOWINMIX 1 0.6667 0.5 1 0.5 0 0 0
    FREEMODE 0
    SEL 0
    REC 0 0 0 0 0 0 0
    VU 2
    TRACKHEIGHT 0 0
    INQ 0 0 0 0.5 100 0 0 100
    NCHAN 2
    FX 1
    TRACKID {B0448BAA-9F98-5543-9DF7-CDB8296564E0}
    PERF 0
    MIDIOUT -1
    MAINSEND 0 0
    <ITEM
      POSITION 8.98188344787476
      SNAPOFFS 0
      LENGTH 20
      LOOP 1
      ALLTAKES 0
      FADEIN 1 0 0 1 0 0
      FADEOUT 1 0 0 1 0 0
      MUTE 0
      SEL 0
      YPOS 0.344423 0.05
      IGUID {899E3F83-2678-9547-94B4-07F7B23F556C}
      IID 38
      NAME "trombone(s) - National_Anthems_-_Argentina.mid"
      VOLPAN 1 0 1 -1
      SOFFS 9 18
      PLAYRATE 1 1 0 -1 0 0.0025
      CHANMODE 0
      TAKECOLOR 26173599 B
      GUID {C2E53093-444F-B646-A9D1-5C5F6FBD27B8}
      <SOURCE MIDI
        HASDATA 1 480 QN
        POOLEDEVTS {C610A95A-6A89-CE47-9DC4-C3E0458E0DBE}
        <X 0 0 0 0 3 trombone(s)
          /wN0cm9tYm9uZShzKQ==
        >
        <X 0 0 0 0 4 "Sound Canvas"
          /wRTb3VuZCBDYW52YXM=
        >
        E 0 92 2e 7f
        E 840 82 2e 30 30
        E 120 92 32 7f -9
        E 720 82 32 01 3
        E 120 92 2e 7f -36
        E 120 82 2e 43 -18
        E 0 92 35 7f -2
        E 1320 82 35 2c 6
        E 120 92 33 7f -5
        E 240 82 33 1c 24
        E 120 92 30 7f -52
        E 120 82 30 01 -17
        E 0 92 2d 7f -12
        E 360 82 2d 13 31
        E 120 92 30 7f 5
        E 0 92 33 7f 5
        E 240 82 30 01 18
        E 0 82 33 42 -17
        E 240 92 30 7f -6
        E 0 92 33 7f -8
        E 240 82 30 01 -7
        E 0 82 33 1c 10
        E 240 92 30 7f -6
        E 0 92 33 7f -6
        E 240 82 30 1d 11
        E 0 82 33 0a -23
        E 240 92 30 7f 2
        E 0 92 33 7f
        E 960 82 30 0d 10
        E 0 82 33 08 7
        E 0 92 32 7f 22
        E 1080 82 32 58 -40
        E 840 92 2e 7f -32
        E 600 82 2e 21 56
        E 360 92 2e 7f -11
        E 480 82 2e 48 44
        E 720 92 2e 7f -18
        E 120 82 2e 43 3
        E 0 92 2e 7f 53
        E 120 82 2e 43 3
        E 0 92 32 7f -27
        E 120 82 32 21 28
        E 120 92 35 7f -27
        E 120 82 35 01 6
        E 120 92 3a 7f -13
        E 360 82 3a 1d 31
        E 120 92 2e 7f -2
        E 240 82 2e 01 -55
        E 120 92 2e 7f -9
        E 120 82 2e 15 -65
        E 0 92 33 7f 8
        E 360 82 33 01 30
        E 120 92 30 7f 16
        E 240 82 30 11 -15
        E 120 92 30 7f -20
        E 120 82 30 23 -30
        E 0 92 35 7f -9
        E 360 82 35 12 8
        E 120 92 35 7f 18
        E 480 82 35 22 -26
        E 0 92 2e 7f 21
        E 120 82 2e 15 9
        E 120 92 3a 7f 6
        E 120 82 3a 15 24
        E 120 92 35 7f 3
        E 120 82 35 1c 32
        E 120 92 32 7f -14
        E 120 82 32 01 17
        E 120 92 2e 7f 3
        E 360 82 2e 4d 37
        E 600 92 2e 7f 6
        E 240 82 2e 1f -13
        E 0 92 3a 7f 4
        E 120 82 3a 21
        E 120 92 35 7f -9
        E 120 82 35 1f -14
        E 120 92 32 7f 1
        E 120 82 32 35 12
        E 120 92 2e 7f 1
        E 360 82 2e 01 14
        E 120 92 30 7f 3
        E 360 82 30 4c 39
        E 360 92 29 7f -6
        E 120 82 29 35 -69
        E 0 92 29 7f 41
        E 120 82 29 3f -3
        E 0 92 2d 7f -17
        E 240 82 2d 1d -39
        E 0 92 30 7f -20
        E 240 82 30 25 -11
        E 0 92 35 7f -16
        E 360 82 35 36 -44
        E 120 92 2d 7f -24
        E 120 82 2d 01 53
        E 240 92 2d 7f -26
        E 120 82 2d 3f -42
        E 0 92 2e 7f -12
        E 360 82 2e 15 -26
        E 120 92 2e 7f -22
        E 360 82 2e 01 -13
        E 0 92 2b 7f -27
        E 120 82 2b 0f -37
        E 0 92 30 7f -9
        E 360 82 30 36 -17
        E 120 92 30 7f -15
        E 240 82 30 3e 16
        E 120 92 30 7f -32
        E 120 82 30 01 1
        E 240 92 35 7f -25
        E 120 82 35 04 33
        E 120 92 30 7f -12
        E 120 82 30 27 33
        E 120 92 2d 7f -28
        E 120 82 2d 20 34
        E 120 92 29 7f -35
        E 120 82 29 39 -3
        E 120 92 35 7f -12
        E 240 82 35 01 -55
        E 0 92 37 7f -20
        E 240 82 37 01 -59
        E 0 92 39 7f -40
        E 120 82 39 1e -13
        E 120 92 3a 7f -19
        E 1320 82 3a 24 -20
        E 120 92 31 7f -20
        E 360 82 31 01 30
        E 120 92 35 7f -22
        E 840 82 35 30 11
        E 120 92 35 7f -32
        E 360 82 35 4c 42
        E 600 b0 7b 00
        GUID {B1C16377-89F8-DF45-8E87-B485FACF7DE7}
        IGNTEMPO 0 120 4 4
        SRCCOLOR 1022
        VELLANE -1 86 6
        CFGEDITVIEW 7680 67.818182 0 7 0 0 0 0 0 0.5
        KEYSNAP 0
        TRACKSEL 226
        EVTFILTER 0 -1 -1 -1 -1 0 0 0 0 -1 -1 -1 -1 0 -1 0 -1 -1
        CFGEDIT 1 0 0 0 0 0 1 0 1 1 1 0.25 32 36 1920 1178 0 0 2 3 0 0 0 0 0 0.5 0 0 1 64
      >
      TAKE
      NAME "trombone(s) - National_Anthems_-_Argentina.mid"
      TAKEVOLPAN 0 1 -1
      SOFFS 9 18
      PLAYRATE 1 1 0 -1 0 0.0025
      CHANMODE 0
      GUID {F892891D-1EDA-3542-9F36-0D9C34104162}
      <SOURCE MIDI
        HASDATA 1 480 QN
        POOLEDEVTS {F5A64B0B-0A11-2349-96DD-D3A7FC4D416C}
        <X 0 0 0 0 3 trombone(s)
          /wN0cm9tYm9uZShzKQ==
        >
        <X 0 0 0 0 4 "Sound Canvas"
          /wRTb3VuZCBDYW52YXM=
        >
        E 0 92 2e 62
        E 870 82 2e 30
        E 81 92 32 5f
        E 732 82 32 01
        E 81 92 2e 67
        E 138 82 2e 43
        E 16 92 35 6a
        E 1328 82 35 2c
        E 109 92 33 67
        E 269 82 33 1c
        E 44 92 30 47
        E 155 82 30 01
        E 5 92 2d 5f
        E 403 82 2d 13
        E 94 92 33 4d
        E 0 92 30 48
        E 218 82 33 42
        E 35 82 30 01
        E 214 92 33 55
        E 2 92 30 4a
        E 239 82 30 01
        E 17 82 33 1c
        E 224 92 30 47
        E 0 92 33 4a
        E 223 82 33 0a
        E 34 82 30 1d
        E 229 92 33 4e
        E 2 92 30 48
        E 965 82 33 08
        E 3 82 30 0d
        E 12 92 32 52
        E 1018 82 32 58
        E 848 92 2e 5d
        E 688 82 2e 21
        E 293 92 2e 62
        E 535 82 2e 48
        E 658 92 2e 65
        E 141 82 2e 43
        E 50 92 2e 62
        E 40 92 32 6a
        E 30 82 2e 43
        E 145 82 32 21
        E 65 92 35 6a
        E 153 82 35 01
        E 101 92 3a 4d
        E 404 82 3a 1d
        E 87 92 2e 62
        E 187 82 2e 01
        E 166 92 2e 4d
        E 64 82 2e 15
        E 73 92 33 49
        E 382 82 33 01
        E 106 92 30 5a
        E 209 82 30 11
        E 115 92 30 44
        E 110 82 30 23
        E 21 92 35 5d
        E 377 82 35 12
        E 130 92 35 55
        E 436 82 35 22
        E 47 92 2e 4d
        E 108 82 2e 15
        E 117 92 3a 5a
        E 138 82 3a 15
        E 99 92 35 67
        E 149 82 35 1c
        E 74 92 32 4b
        E 151 82 32 01
        E 106 92 2e 55
        E 394 82 2e 4d
        E 569 92 2e 5f
        E 221 82 2e 1f
        E 17 92 3a 4d
        E 116 82 3a 21
        E 111 92 35 5f
        E 115 82 35 1f
        E 135 92 32 44
        E 131 82 32 35
        E 109 92 2e 5a
        E 373 82 2e 01
        E 109 92 30 4e
        E 396 82 30 4c
        E 315 92 29 4b
        E 57 82 29 35
        E 110 92 29 52
        E 62 92 2d 65
        E 14 82 29 3f
        E 204 82 2d 1d
        E 19 92 30 57
        E 244 92 35 5f
        E 5 82 30 25
        E 327 82 35 36
        E 140 92 2d 5d
        E 197 82 2d 01
        E 161 92 2d 55
        E 104 82 2d 3f
        E 30 92 2e 62
        E 346 82 2e 15
        E 124 92 2e 55
        E 355 92 2b 52
        E 14 82 2e 01
        E 96 82 2b 0f
        E 28 92 30 48
        E 352 82 30 36
        E 122 92 30 4a
        E 271 82 30 3e
        E 72 92 30 2f
        E 153 82 30 01
        E 214 92 35 5f
        E 178 82 35 04
        E 75 92 30 55
        E 165 82 30 27
        E 59 92 2d 55
        E 182 82 2d 20
        E 51 92 29 4f
        E 152 82 29 39
        E 111 92 35 62
        E 197 82 35 01
        E 35 92 37 47
        E 201 82 37 01
        E 19 92 39 52
        E 147 82 39 1e
        E 114 92 3a 4d
        E 1319 82 3a 24
        E 120 92 31 62
        E 410 82 31 01
        E 68 92 35 6a
        E 873 82 35 30
        E 77 92 35 4d
        E 434 82 35 4c
        E 540 92 2e 62
        E 18 82 2e 00
        E 0 b0 7b 00
        GUID {FA85E58F-0F8E-E042-91D9-E3A5009E92A3}
        IGNTEMPO 0 120 4 4
        SRCCOLOR 1069
        VELLANE -1 86 6
        CFGEDITVIEW 0 0 0 7 0 0 0 0 0 0.5
        KEYSNAP 0
        TRACKSEL 226
        EVTFILTER 0 -1 -1 -1 -1 0 0 0 0 -1 -1 -1 -1 0 -1 0 -1 -1
        CFGEDIT 1 0 0 0 0 0 1 0 1 0 1 0.25 16 20 1920 1178 0 0 2 3 0 0 0 0 0 0.5 0 0 1 64
      >
    >
  >
  <TRACK {5AFE27AD-822D-C34D-AFA1-36A455563115}
    NAME "Bass Return (global)"
    PEAKCOL 0
    BEAT -1
    AUTOMODE 0
    VOLPAN 0.8829554344746 0.024 -1 -1 1
    MUTESOLO 0 0 0
    IPHASE 0
    ISBUS 0 0
    BUSCOMP 0 0
    SHOWINMIX 1 0.6667 0.5 1 0.5 0 0 0
    FREEMODE 0
    SEL 0
    REC 0 0 0 0 0 0 0
    VU 2
    TRACKHEIGHT 0 0
    INQ 0 0 0 0.5 100 0 0 100
    NCHAN 2
    FX 1
    TRACKID {5AFE27AD-822D-C34D-AFA1-36A455563115}
    PERF 0
    AUXRECV 1 0 1 0 1 0 0 0 0 -1:U 0 -1 ''
    AUXRECV 2 0 1 0 0 0 0 0 0 -1:U 0 -1 ''
    AUXRECV 6 0 1 0 1 0 0 4 0 -1:U 0 -1 ''
    MIDIOUT -1
    MAINSEND 1 0
    <FXCHAIN
      SHOW 0
      LASTSEL 0
      DOCKED 0
      BYPASS 0 0 0
      <VST "VST: 8-Bit Shaper (Xfer Records)" 8BitShaper.vst 0 "" 1148539762
        clN1RO5e7f4CAAAAAQAAAAAAAAACAAAAAAAAAAIAAAABAAAAAAAAAAIAAAAAAAAANAIAAAEAAAAAABAA
        ZmaGP20MlT7dQQw/AAAAPywAMCAAAIA/LjAwMDAwMCAXAAAAMAAAABkAAAAaAAAAGgAAABoAAAAbAAAAGwAAABwAAAAcAAAAHAAAAB0AAAAdAAAAHgAAAB4AAAAfAAAA
        HwAAACAAAAAgAAAAIAAAACEAAAAhAAAAIQAAACIAAAAiAAAAIgAAACMAAAAjAAAAIwAAACQAAAAkAAAAJAAAACUAAAAlAAAAKAAAACgAAAApAAAAKQAAACoAAAA1AAAA
        KgAAACoAAAA2AAAAKgAAACoAAAAqAAAAKgAAACoAAAAqAAAAKgAAACsAAAArAAAAOQAAAC0AAAA0AAAAOgAAAC0AAAAtAAAAPAAAAC4AAAAuAAAALwAAADAAAAAwAAAA
        MQAAADEAAAAxAAAAMgAAADMAAAAzAAAAMwAAADcAAAA3AAAANwAAADgAAAA4AAAAOAAAADkAAAA5AAAAOQAAADoAAAA6AAAAOgAAADoAAAA6AAAAOwAAADsAAAA7AAAA
        PAAAADsAAAA7AAAAOwAAADwAAAA8AAAAPAAAADwAAAA9AAAAPQAAAD0AAAA9AAAAPQAAAD4AAAA+AAAAPwAAAEkAAABAAAAAQAAAAEgAAABAAAAAQQAAAEIAAABCAAAA
        QgAAAEMAAABDAAAAQwAAAEQAAABEAAAARQAAAE0AAABGAAAARwAAAEYAAABHAAAASAAAAEgAAABJAAAATwAAAAAAgD+rqqo+q6qqPh0Fwz6OAm0/
        AEluaXQgMQAQAAAA
      >
      PRESETNAME "Init 1"
      FLOATPOS 32 39 278 389
      FXID {19A94086-1737-784E-A733-2897FDD09534}
      WAK 0
    >
  >
  <TRACK {3CF13A00-0AFC-8542-AD98-73B6D91102DB}
    NAME "vst Plogue"
    PEAKCOL 26779488
    BEAT -1
    AUTOMODE 0
    VOLPAN 1 0 -1 -1 1
    MUTESOLO 0 0 0
    IPHASE 0
    ISBUS 0 0
    BUSCOMP 0 0
    SHOWINMIX 1 0.6667 0.5 1 0.5 0 0 0
    FREEMODE 0
    SEL 0
    REC 0 0 0 1 0 0 0
    VU 2
    TRACKHEIGHT 0 0
    INQ 0 0 0 0.5 100 0 0 100
    NCHAN 8
    FX 1
    TRACKID {3CF13A00-0AFC-8542-AD98-73B6D91102DB}
    PERF 0
    AUXRECV 8 0 1 0 0 0 0 0 0 -1:U 32 -1 ''
    AUXRECV 8 0 1 0 0 0 0 0 0 -1:U 96 -1 ''
    AUXRECV 9 0 1 0 0 0 0 0 0 -1:U 64 -1 ''
    AUXRECV 9 0 1 0 0 0 0 0 0 -1:U 128 -1 ''
    AUXRECV 10 0 1 0 0 0 0 0 0 -1:U 160 -1 ''
    MIDIOUT -1
    MAINSEND 0 0
    <FXCHAIN
      SHOW 0
      LASTSEL 0
      DOCKED 0
      BYPASS 0 0 0
      <VST "VSTi: chipsounds (Multi) (Plogue Art et Technologie, Inc) (32 out)" "chipsounds Multi.vst" 0 "" 1347241807
        T0dNUO5e7f4AAAAAIAAAAAEAAAAAAAAAAgAAAAAAAAAEAAAAAAAAAAgAAAAAAAAAEAAAAAAAAAAgAAAAAAAAAEAAAAAAAAAAgAAAAAAAAAAAAQAAAAAAAAACAAAAAAAA
        AAQAAAAAAAAACAAAAAAAAAAQAAAAAAAAACAAAAAAAAAAQAAAAAAAAACAAAAAAAAAAAABAAAAAAAAAAIAAAAAAAAABAAAAAAAAAAIAAAAAAAAABAAAAAAAAAAIAAAAAAA
        AABAAAAAAAAAAIAAAAAAAAAAAAEAAAAAAAAAAgAAAAAAAAAEAAAAAAAAAAgAAAAAAAAAEAAAAAAAAAAgAAAAAAAAAEAAAAAAAAAAgAAAAADpBQAAAQAAAAAAEAA=
        Q0VHUAU/AAB4nO2bW3OjNhTH3/MpGJ7ahzVI3MyMkx1f4q5nmm6m9k4fMwpWHFpuRSJN+ukrwMQoxkKEpJ1t4CEx8p8jHR0hftIxk8+PYaA84JT4cXSugpGuKp8vzibT
        1Edr9IBrX9k6VC/OFHZM1phSP9oR5c8MBT59Yt+qyi6Ib1FwHQfs1ICqQmiKUchk5WmIHtdFyTQIYu9qdq5agBVfrRarrxm9ire4sIIyGoeIsirXQUzPVdYe4jGtmVv0
        UIBYEVA+KTivekS8YF88xxHF6blq61VLNllUVK6P9OJQFa1qPrOs+NvCeIRCnJscKddZipX5vZ9o69VCs60xUH74ZbOe/6gqtyj6Y8X0QNddVfHuURThoLg8Kdw1VYUe
        1Zbc3qQo2jHrn8BzIWVFJIkJLq4OM1p+IH/dBIjQ3FLZxqKdV8iPqnY+oCDDRYB4Z3gheBYeec0LoazQkBWaskJLVmjLCh1Z4VhW6MoKgS6tlI4NkA4OkI4OkA4PaIvP
        NUpRKDWIDsq22g/KeizHliVQcl1vuiKpU+97YAjrNzmp0Gp9gIKxUMqPPJF0XLdqCPtq7EpL3XpnAVckBeYhrgA2x2uD0h2m+8nTi8PRdRDvMjzKHxujn5dfRxnBqV6b
        y4qr5hlhk/sCUaTQp4RdCaFhs9AQ/292YuZ9VD1tWH042vqo/Lhll7AP1bEs/0H9bQ/eRa30savT4IM4vUn93Q6na/YcxpGH01a3gQOBW7ltOTW3YZPbYO/1/ijPneKz
        MXeWLufEXDeW/1VHFNH/lTmAUwYAa0xyp0aE4uR/NP4nWs5ML/EJ9MMn0IBP4wGfBnz6IPjEewRs25EBLVe3ioVTO2hBx7R1+41ByxK6xIGWZQqRqN5UwxFabRvKr6In
        Gc6pA9ShF2BbYNnc3DLlDAA1AFQfgAI66EpQxZ3rsF5YXh4TVNk1jjHjCpaMq3Lt+EjKShdNFnTIW3hnMmvmEtiPS8yKS8CBS8x+XKK3cEnbQ6U7l7SQzsAl4g4fuKQr
        lzjQNPPbqFlZ9wgI9z/qHjlCguA8AiKPnJbb4tSmknBPh4sS810kNeUbwG0q5QQDTko7uFUf+aaQ9px6DxjCnaIa7bU1wOGGtLCzODC0xW2tDwEbSG/WWVAk5fbKXCgO
        7GsZ0mjVts3lda38/qqr2x3syo8wV3c73GQdnAOA884Qho7FoD57FVqRuK3fBkwfML0XpkOjK6YXK+ES03UIZ7MjT47hfVFguq43Ynoj6Ftz3u6sxHTHAfXSZVk650v3
        x1xGuzyB/52R3uiH9PDfz9RKI30LqQ9bjULhgPTfWaa2xeiQqa131pCpbTwGghkyta+M/sfM1Jr98MlowCdrwKcBnz4IPn2HmdrWDbkhUztkaveNHQBK6PSQqZU9OnOJ
        88wlcKSU/aj8hh7wXZyGRPuC0q2yfoq8k2BiPadq7Z4bO29EI2//u7EWvhlo5GPTiDA9xXkk/IU8102MRaB7MpXLeW+JU6QcuogzadwgEUIGl8wU7xFBeSCC8ikpp230
        vS5FykXLFhIZNwBtoVVLvgF86tlwjZOYC4x6Y20hPr4fvdVzpG2/THy/HOm4g1Y+R+oC+cCxXpUfkUzc9nA5mSI1xKsPqLc9OwaYHmC6D0xDy+oI0+XzodyO1GfOUiaf
        Wh1VLtNmC3nLmlp8hrNWOnOsY7vdLNgNmd6OFkBfC5bT14K56GmhuRTCaWO+Wn+ZmZZdgFze3WGPHr8HPA1v/XxYvlxw7K1Ofvq2qi5AHvUf8Kp8SxlU55eHt5ZxwKrA
        2w26zUdqfcZMMcH0CkeZ4pPqclo0VXyrKBQ/MsmG/c1SvFW++JSwRQ6i9+eqNk2SwPeKN6eJVlpg6yQ/IXEWbVlJUSnRBPa1/QJsmiZ4t/NjonE1jRCbr5IXk/+RK7CT
        KyH63aH3zz58YxMh0QgLRbQLUL5Rr914KUYUa2sUJgEm2mX1jbL08/OygvnB0aoOkl9i0fuX7Z5oLIgXZxOtesX94uwfsi4M+g==
        AAAQAAAA
      >
      FLOATPOS 275 269 871 509
      FXID {C804D762-B992-A540-81BF-3D6C0F7FF19B}
      WAK 0
    >
  >
  <TRACK {361291E9-E6AB-604E-AA43-746A4AF7FC9C}
    NAME "midi "
    PEAKCOL 16576
    BEAT -1
    AUTOMODE 0
    VOLPAN 1 0 -1 -1 1
    MUTESOLO 0 0 0
    IPHASE 0
    ISBUS 1 1
    BUSCOMP 1 0
    SHOWINMIX 1 0.6667 0.5 1 0.5 0 0 0
    FREEMODE 0
    SEL 0
    REC 0 0 0 0 0 0 0
    VU 2
    TRACKHEIGHT 0 0
    INQ 0 0 0 0.5 100 0 0 100
    NCHAN 2
    FX 1
    TRACKID {361291E9-E6AB-604E-AA43-746A4AF7FC9C}
    PERF 0
    MIDIOUT -1
    MAINSEND 1 0
  >
  <TRACK {2BB5EACD-C1BC-284E-92F6-33B7023B768F}
    NAME "ch1,3 (send)"
    PEAKCOL 16576
    BEAT -1
    AUTOMODE 0
    VOLPAN 1 0 -1 -1 1
    MUTESOLO 0 0 0
    IPHASE 0
    ISBUS 0 0
    BUSCOMP 0 0
    SHOWINMIX 1 0.6667 0.5 1 0.5 0 0 0
    FREEMODE 0
    SEL 0
    REC 0 0 0 0 0 0 0
    VU 2
    MIDICTL -1 1
    TRACKHEIGHT 0 0
    INQ 0 0 0 0.5 100 0 0 100
    NCHAN 2
    FX 1
    TRACKID {2BB5EACD-C1BC-284E-92F6-33B7023B768F}
    PERF 0
    MIDIOUT -1
    MAINSEND 1 0
    <FXCHAIN
      SHOW 0
      LASTSEL 0
      DOCKED 0
    >
    <ITEM
      POSITION 9
      SNAPOFFS 0
      LENGTH 20
      LOOP 1
      ALLTAKES 0
      FADEIN 1 0 0 1 0 0
      FADEOUT 1 0 0 1 0 0
      MUTE 0
      SEL 0
      YPOS 0 0.05
      IGUID {2C957C0A-4359-0E4A-A834-D88504171F46}
      IID 36
      NAME "trumpet(s) - National_Anthems_-_Argentina.mid"
      VOLPAN 1 0 1 -1
      SOFFS 9 18
      PLAYRATE 1 1 0 -1 0 0.0025
      CHANMODE 0
      TAKECOLOR 26173599 B
      GUID {97727290-2442-8A46-860F-F62DBC53472B}
      <SOURCE MIDI
        HASDATA 1 480 QN
        POOLEDEVTS {78ABE98A-F81F-9946-ACF5-9993F734E70A}
        <X 0 0 0 0 3 trumpet(s)
          /wN0cnVtcGV0KHMp
        >
        <X 0 0 0 0 4 "Sound Canvas"
          /wRTb3VuZCBDYW52YXM=
        >
        E 0 90 46 7f
        E 840 80 46 3a 30
        E 120 90 4a 7f -9
        E 720 80 4a 18 -11
        E 120 90 46 7f -30
        E 120 80 46 39 -51
        E 0 90 4d 7f -12
        E 1200 80 4d 25 55
        E 240 90 4b 7f -8
        E 240 80 4b 23 40
        E 120 90 48 7f -50
        E 120 80 48 31 -93
        E 0 90 45 7f -7
        E 360 80 45 02 -5
        E 120 90 45 7f -8
        E 360 80 45 01 -2
        E 120 90 45 7f -12
        E 360 80 45 01 23
        E 120 90 45 7f -18
        E 360 80 45 01 -14
        E 120 90 45 7f -16
        E 720 90 46 7f 37
        E 120 80 45 27 -50
        E 0 80 46 3e
        E 0 90 48 7f 11
        E 120 80 48 18 -11
        E 0 90 46 7f -5
        E 1080 80 46 43 -18
        E 120 90 41 7f -3
        E 120 80 41 1c 46
        E 120 90 43 7f -20
        E 120 80 43 3a 18
        E 120 90 45 7f -27
        E 120 80 45 2b -24
        E 120 90 46 7f
        E 360 80 46 4c 49
        E 120 90 46 7f
        E 240 80 46 43 55
        E 120 90 4a 7f -32
        E 120 80 4a 18 -51
        E 0 90 48 7f -22
        E 240 80 48 33 -55
        E 0 90 46 7f -35
        E 120 80 46 2b 20
        E 120 90 45 7f -34
        E 240 80 45 2c 7
        E 120 90 43 7f -33
        E 120 80 43 35 -73
        E 0 90 41 7f -41
        E 720 80 41 43 -45
        E 0 90 3e 7f -25
        E 240 80 3e 2a -30
        E 0 90 3a 7f -24
        E 360 80 3a 3d -31
        E 120 90 3e 7f -8
        E 240 80 3e 01 26
        E 120 90 41 7f -25
        E 120 80 41 11 -48
        E 0 90 3f 7f -16
        E 360 80 3f 3b 39
        E 120 90 3f 7f -7
        E 240 80 3f 29 53
        E 120 90 43 7f -33
        E 120 80 43 2f -36
        E 0 90 41 7f 3
        E 480 80 41 01 -24
        E 0 90 43 7f -7
        E 240 80 43 38 27
        E 120 90 45 7f -32
        E 120 80 45 28 -69
        E 0 90 46 7f
        E 960 80 46 51 35
        E 360 90 3a 7f -26
        E 120 80 3a 52 -57
        E 0 90 3a 7f
        E 240 80 3a 3b 6
        E 120 90 3c 7f -53
        E 120 80 3c 38 -44
        E 0 90 3e 7f 6
        E 360 80 3e 3f 38
        E 120 90 3e 7f -6
        E 240 80 3e 32 1
        E 120 90 3e 7f -21
        E 120 80 3e 36 -77
        E 0 90 3e 7f -19
        E 240 80 3e 25 -21
        E 0 90 41 7f -14
        E 240 80 41 01 -29
        E 0 90 40 7f -15
        E 240 80 40 1d 17
        E 120 90 43 7f -36
        E 120 80 43 2c -28
        E 0 90 43 7f
        E 480 80 43 4c 36
        E 0 90 41 7f 27
        E 600 80 41 1f 39
        E 360 90 41 7f 6
        E 240 80 41 01 17
        E 120 90 45 7f -46
        E 120 80 45 2f -60
        E 0 90 43 7f -21
        E 360 80 43 3e 26
        E 120 90 43 7f -2
        E 240 80 43 26 47
        E 120 90 46 7f -39
        E 120 80 46 4a 44
        E 0 90 40 7f 29
        E 480 80 40 33 -50
        E 0 90 40 7f 1
        E 240 80 40 0e 50
        E 120 90 43 7f -25
        E 120 80 43 37 -43
        E 0 90 41 7f
        E 960 80 41 50 20
        E 240 90 4d 7f -3
        E 120 80 4d 3c 24
        E 120 90 4f 7f -4
        E 120 80 4f 32 29
        E 120 90 51 7f -15
        E 120 80 51 26 26
        E 120 90 52 7f -6
        E 480 80 52 40 -7
        E 0 90 4d 7f 6
        E 240 80 4d 3a -34
        E 120 90 4d 7f -13
        E 120 80 4d 44 -49
        E 0 90 4e 7f -17
        E 240 80 4e 29 -30
        E 0 90 4d 7f -16
        E 120 80 4d 19 27
        E 120 90 4b 7f -35
        E 120 80 4b 01 24
        E 120 90 49 7f -34
        E 120 80 49 2a 9
        E 120 90 49 7f -8
        E 960 80 49 48 -15
        E 0 90 48 7f 11
        E 120 80 48 45 56
        E 120 90 41 7f 1
        E 120 80 41 44 9
        E 120 90 43 7f -1
        E 120 80 43 41 21
        E 120 90 45 7f -25
        E 120 80 45 01 23
        E 120 b0 7b 00
        GUID {A9C7CB40-05D1-FF46-A367-EB779E7EF9A3}
        IGNTEMPO 0 120 4 4
        SRCCOLOR 1065
        VELLANE -1 86 6
        CFGEDITVIEW 7680 67.818182 0 7 0 0 0 0 0 0.5
        KEYSNAP 0
        TRACKSEL 226
        EVTFILTER 0 -1 -1 -1 -1 0 0 0 0 -1 -1 -1 -1 0 -1 0 -1 -1
        CFGEDIT 1 0 0 0 0 0 1 0 1 1 1 0.25 32 36 1920 1178 0 0 2 3 0 0 0 0 0 0.5 0 0 1 64
      >
      TAKE
      NAME "trumpet(s) - National_Anthems_-_Argentina.mid"
      TAKEVOLPAN 0 1 -1
      SOFFS 9 18
      PLAYRATE 1 1 0 -1 0 0.0025
      CHANMODE 0
      GUID {302F4D5F-661E-F84D-9458-09FFD711A0BD}
      <SOURCE MIDI
        HASDATA 1 480 QN
        POOLEDEVTS {B096A2A9-7EE9-9C41-A371-3CCE67878AF1}
        <X 0 0 0 0 3 trumpet(s)
          /wN0cnVtcGV0KHMp
        >
        <X 0 0 0 0 4 "Sound Canvas"
          /wRTb3VuZCBDYW52YXM=
        >
        e 0 90 46 7f
        e 870 80 46 3a
        e 81 90 4a 7f
        e 718 80 4a 18
        e 101 90 46 7f
        e 99 80 46 39
        e 39 90 4d 7f
        e 1267 80 4d 25
        e 177 90 4b 7f
        e 288 80 4b 23
        e 30 90 48 7f
        e 77 80 48 31
        e 86 90 45 7f
        e 362 80 45 02
        e 117 90 45 7f
        e 366 80 45 01
        e 110 90 45 7f
        e 395 80 45 01
        e 79 90 45 7f
        e 364 80 45 01
        e 118 90 45 7f
        e 773 90 46 7f
        e 33 80 45 27
        e 50 80 46 3e
        e 11 90 48 7f
        e 98 80 48 18
        e 6 90 46 7f
        e 1067 80 46 43
        e 135 90 41 7f
        e 169 80 41 1c
        e 54 90 43 7f
        e 158 80 43 3a
        e 75 90 45 7f
        e 123 80 45 2b
        e 144 90 46 7f
        e 409 80 46 4c
        e 71 90 46 7f
        e 295 80 46 43
        e 33 90 4a 7f
        e 101 80 4a 18
        e 29 90 48 7f
        e 207 80 48 33
        e 20 90 46 7f
        e 175 80 46 2b
        e 66 90 45 7f
        e 281 80 45 2c
        e 80 90 43 7f
        e 80 80 43 35
        e 32 90 41 7f
        e 716 80 41 43
        e 20 90 3e 7f
        e 235 80 3e 2a
        e 6 90 3a 7f
        e 353 80 3a 3d
        e 143 90 3e 7f
        e 274 80 3e 01
        e 69 90 41 7f
        e 97 80 41 11
        e 32 90 3f 7f
        e 415 80 3f 3b
        e 74 90 3f 7f
        e 300 80 3f 29
        e 34 90 43 7f
        e 117 80 43 2f
        e 39 90 41 7f
        e 453 80 41 01
        e 17 90 43 7f
        e 274 80 43 38
        e 61 90 45 7f
        e 83 80 45 28
        e 69 90 46 7f
        e 995 80 46 51
        e 299 90 3a 7f
        e 89 80 3a 52
        e 57 90 3a 7f
        e 246 80 3a 3b
        e 61 90 3c 7f
        e 129 80 3c 38
        e 50 90 3e 7f
        e 392 80 3e 3f
        e 76 90 3e 7f
        e 247 80 3e 32
        e 98 90 3e 7f
        e 64 80 3e 36
        e 58 90 3e 7f
        e 238 80 3e 25
        e 7 90 41 7f
        e 225 80 41 01
        e 14 90 40 7f
        e 272 80 40 1d
        e 67 90 43 7f
        e 128 80 43 2c
        e 28 90 43 7f
        e 507 90 41 7f
        e 9 80 43 4c
        e 603 80 41 1f
        e 327 90 41 7f
        e 251 80 41 01
        e 57 90 45 7f
        e 106 80 45 2f
        e 39 90 43 7f
        e 407 80 43 3e
        e 92 90 43 7f
        e 289 80 43 26
        e 34 90 46 7f
        e 188 90 40 7f
        e 15 80 46 4a
        e 386 80 40 33
        e 51 90 40 7f
        e 289 80 40 0e
        e 45 90 43 7f
        e 102 80 43 37
        e 43 90 41 7f
        e 980 80 41 50
        e 217 90 4d 7f
        e 147 80 4d 3c
        e 92 90 4f 7f
        e 153 80 4f 32
        e 76 90 51 7f
        e 161 80 51 26
        e 88 90 52 7f
        e 479 80 52 40
        e 13 90 4d 7f
        e 200 80 4d 3a
        e 141 90 4d 7f
        e 84 80 4d 44
        e 32 90 4e 7f
        e 227 80 4e 29
        e 14 90 4d 7f
        e 163 80 4d 19
        e 58 90 4b 7f
        e 179 80 4b 01
        e 62 90 49 7f
        e 163 80 49 2a
        e 103 90 49 7f
        e 953 80 49 48
        e 26 90 48 7f
        e 165 80 48 45
        e 65 90 41 7f
        e 128 80 41 44
        e 110 90 43 7f
        e 142 80 43 41
        e 74 90 45 7f
        e 168 80 45 01
        e 82 90 46 7f
        e 15 80 46 00
        E 0 b0 7b 00
        GUID {9CD78557-C7F9-244C-AB9D-4C9151156086}
        IGNTEMPO 0 120 4 4
        SRCCOLOR 1066
        VELLANE -1 86 6
        CFGEDITVIEW 0 0 0 7 0 0 0 0 0 0.5
        KEYSNAP 0
        TRACKSEL 226
        EVTFILTER 0 -1 -1 -1 -1 0 0 0 0 -1 -1 -1 -1 0 -1 0 -1 -1
        CFGEDIT 1 0 0 0 0 0 1 0 1 0 1 0.25 16 20 1920 1178 0 0 2 3 0 0 0 0 0 0.5 0 0 1 64
      >
    >
  >
  <TRACK {3C494A2B-9670-9740-AD22-E42CC5065FE1}
    NAME "ch2,4 (send)"
    PEAKCOL 16576
    BEAT -1
    AUTOMODE 0
    VOLPAN 1 0 -1 -1 1
    MUTESOLO 0 0 0
    IPHASE 0
    ISBUS 0 0
    BUSCOMP 0 0
    SHOWINMIX 1 0.6667 0.5 1 0.5 0 0 0
    FREEMODE 0
    SEL 0
    REC 0 0 0 0 0 0 0
    VU 2
    MIDICTL -1 1
    TRACKHEIGHT 0 0
    INQ 0 0 0 0.5 100 0 0 100
    NCHAN 2
    FX 1
    TRACKID {3C494A2B-9670-9740-AD22-E42CC5065FE1}
    PERF 0
    MIDIOUT -1
    MAINSEND 1 0
    <FXCHAIN
      WNDRECT 32 359 724 387
      SHOW 0
      LASTSEL 0
      DOCKED 0
    >
    <ITEM
      POSITION 9
      SNAPOFFS 0
      LENGTH 20
      LOOP 1
      ALLTAKES 0
      FADEIN 1 0 0 1 0 0
      FADEOUT 1 0 0 1 0 0
      MUTE 0
      SEL 0
      YPOS 0.172211 0.05
      IGUID {D595ECD2-0AB8-C34E-96E1-DE8ABCB8D342}
      IID 37
      NAME "fr. horn(s) - National_Anthems_-_Argentina.mid"
      VOLPAN 1 0 1 -1
      SOFFS 9 18
      PLAYRATE 1 1 0 -1 0 0.0025
      CHANMODE 0
      TAKECOLOR 26173599 B
      GUID {BC2372A8-5D29-FA43-AC85-B5AD0DD2188C}
      <SOURCE MIDI
        HASDATA 1 480 QN
        POOLEDEVTS {42AC9299-1905-5642-B344-5721AFB9EF16}
        <X 0 0 0 0 3 "fr. horn(s)"
          /wNmci4gaG9ybihzKQ==
        >
        <X 0 0 0 0 4 "Sound Canvas"
          /wRTb3VuZCBDYW52YXM=
        >
        E 0 91 3a 7f
        E 840 81 3a 01 39
        E 120 91 3e 7f -15
        E 720 81 3e 01 -52
        E 120 91 3a 7f -51
        E 120 81 3a 19 -52
        E 0 91 41 7f -22
        E 1320 81 41 08 -29
        E 120 91 3f 7f -15
        E 240 81 3f 19 36
        E 120 91 3c 7f -44
        E 120 81 3c 35 -53
        E 0 91 39 7f -12
        E 360 81 39 01 -25
        E 120 91 39 7f -15
        E 360 81 39 10 -6
        E 120 91 39 7f -3
        E 360 81 39 0b -30
        E 120 91 39 7f -10
        E 360 81 39 01 11
        E 120 91 39 7f
        E 720 81 39 36 -9
        E 0 91 3a 7f -21
        E 120 81 3a 2d -50
        E 0 91 3c 7f -16
        E 120 81 3c 20 -24
        E 0 91 3a 7f 3
        E 1080 81 3a 40 -47
        E 120 91 3e 7f 1
        E 240 81 3e 19 -15
        E 0 91 3f 7f -3
        E 240 81 3f 21 -21
        E 0 91 3c 7f -18
        E 240 81 3c 04 -44
        E 0 91 3e 7f
        E 360 81 3e 15 35
        E 120 91 3e 7f 3
        E 240 81 3e 01 10
        E 120 91 46 7f -26
        E 120 81 46 2e -40
        E 0 91 45 7f -22
        E 240 81 45 2e -24
        E 0 91 43 7f -4
        E 120 81 43 0b 45
        E 120 91 41 7f -18
        E 240 81 41 12 14
        E 120 91 3f 7f -30
        E 120 81 3f 21 -52
        E 0 91 3e 7f -31
        E 960 81 3e 39 -7
        E 0 91 35 7f -16
        E 360 81 35 51 22
        E 120 91 35 7f 8
        E 0 91 3a 7f 2
        E 240 81 35 29 24
        E 0 81 3a 37 6
        E 120 91 3a 7f -26
        E 0 91 3e 7f -28
        E 120 81 3a 2a -64
        E 0 81 3e 2f -54
        E 0 91 37 7f 13
        E 0 91 3c 7f 10
        E 360 81 3c 24 54
        E 120 81 37 2a -60
        E 0 91 37 7f 16
        E 0 91 3c 7f 17
        E 240 81 37 3f 15
        E 0 81 3c 24 -17
        E 120 91 3c 7f -29
        E 0 91 3f 7f -40
        E 120 81 3c 35 -73
        E 0 81 3f 3d -81
        E 0 91 3a 7f -10
        E 0 91 3e 7f 4
        E 360 81 3a 32 56
        E 0 81 3e 3b 53
        E 120 91 3c 7f -3
        E 0 91 3f 7f -9
        E 240 81 3c 1d 10
        E 0 81 3f 3f 12
        E 120 91 3c 7f -21
        E 0 91 3f 7f -31
        E 120 81 3c 01 -56
        E 0 81 3f 2c -56
        E 0 91 35 7f 5
        e 0 91 3a 7f 1920
        E 0 91 3e 7f
        e 360 81 3a 3c 1949
        E 120 81 35 37 -37
        E 0 81 3e 49 -38
        E 0 91 3a 7f -1
        E 0 91 3e 7f -7
        E 240 81 3a 35 26
        E 0 81 3e 1e 31
        E 120 91 3a 7f 5
        E 0 91 3e 7f 8
        E 120 81 3a 3d -60
        E 0 81 3e 2a -49
        E 0 91 3a 7f 8
        E 0 91 3e 7f 13
        E 240 81 3a 47 55
        E 120 81 3e 29 -45
        E 120 91 32 7f 15
        E 240 81 32 01 51
        E 120 91 35 7f -45
        E 120 81 35 57 -69
        E 480 91 3a 7f -8
        E 240 81 3a 3d -6
        E 120 91 3a 7f -13
        E 120 81 3a 3d -82
        E 0 91 3a 7f 3
        E 360 81 3a 24 5
        E 120 91 3c 7f -18
        E 360 81 3c 0e -56
        E 0 91 3a 7f -16
        E 120 81 3a 2b -82
        E 0 91 3a 7f -10
        E 480 81 3a 01 -15
        E 0 91 39 7f 7
        E 600 81 39 53
        E 360 91 39 7f -22
        E 0 91 3c 7f -23
        E 240 81 39 39 -6
        E 0 81 3c 1d -31
        E 0 91 3c 7f 52
        E 0 91 41 7f 50
        E 120 81 3c 38 24
        E 0 81 41 48 4
        E 120 91 3a 7f -5
        E 0 91 3e 7f -21
        E 360 81 3a 34 -2
        E 0 81 3e 36 -7
        E 120 91 3a 7f -10
        E 0 91 3e 7f -12
        E 240 81 3a 45 -1
        E 0 81 3e 37 -19
        E 120 91 3e 7f -32
        E 0 91 43 7f -36
        E 120 81 3e 41 -55
        E 0 81 43 52 -73
        E 0 91 37 7f -8
        E 0 91 3a 7f -8
        E 360 81 37 24 -14
        E 0 81 3a 32 -11
        E 120 91 37 7f -11
        E 0 91 3a 7f -18
        E 240 81 37 2a -19
        E 0 81 3a 38 -42
        E 0 91 3a 7f 54
        E 0 91 40 7f 59
        E 120 81 3a 30 14
        E 0 81 40 3f 40
        E 120 91 39 7f -14
        E 0 91 3c 7f -17
        E 360 81 39 22 28
        E 0 81 3c 2f 36
        E 120 91 39 7f -13
        E 0 91 3c 7f -20
        E 360 81 39 34 23
        E 0 81 3c 2f 28
        E 120 91 39 7f -20
        E 0 91 3c 7f -32
        E 120 81 39 51 24
        E 0 81 3c 48 33
        E 120 91 41 7f -10
        E 0 91 45 7f -17
        E 120 81 41 16 51
        E 0 81 45 1d 29
        E 120 91 43 7f -26
        E 0 91 46 7f -31
        E 120 81 43 26 1
        E 0 81 46 31 16
        E 120 91 45 7f -44
        E 0 91 48 7f -41
        E 120 81 45 39 -21
        E 0 81 48 43 -21
        E 120 91 46 7f -31
        E 0 91 49 7f -33
        E 360 81 46 4a 39
        E 0 81 49 50 6
        E 120 91 41 7f -17
        E 0 91 49 7f -29
        E 240 81 41 24 -4
        E 0 81 49 46 -13
        E 120 91 41 7f -52
        E 0 91 49 7f -51
        E 120 81 41 1f -73
        E 0 81 49 19 -61
        E 0 91 42 7f -38
        E 0 91 4b 7f -43
        E 120 81 42 01 55
        E 120 81 4b 46 -59
        E 0 91 41 7f -56
        E 0 91 49 7f -56
        E 120 81 41 20 -16
        E 0 81 49 15 4
        E 120 91 3f 7f
        E 0 91 48 7f -50
        E 120 81 48 01 54
        E 120 81 3f 01
        E 0 91 3d 7f -60
        E 0 91 46 7f -52
        E 120 81 3d 11 -36
        E 0 81 46 30 -40
        E 120 91 3d 7f -39
        E 0 91 46 7f -37
        E 840 81 3d 01 51
        E 120 81 46 01 -18
        E 0 91 3c 7f -11
        E 0 91 45 7f -5
        E 120 81 3c 48 23
        E 0 81 45 41 6
        E 120 91 41 7f -3
        E 240 81 41 38 -56
        E 0 91 40 7f -19
        E 120 81 40 31 58
        E 120 91 3f 7f -11
        E 240 81 3f 46 -59
        E 0 b0 7b 00
        GUID {3102B285-EC86-6248-A61C-0C00FC2B19E4}
        IGNTEMPO 0 120 4 4
        SRCCOLOR 1021
        VELLANE -1 86 6
        CFGEDITVIEW 11761.90701 114.176907 0 7 0 0 0 0 0 0.5
        KEYSNAP 0
        TRACKSEL 226
        EVTFILTER 0 -1 -1 -1 -1 0 0 0 0 -1 -1 -1 -1 0 -1 0 -1 -1
        CFGEDIT 1 0 0 0 0 0 1 0 1 1 1 0.25 32 36 1920 1178 0 0 2 3 0 0 0 0 0 0.5 0 0 1 64
      >
      TAKE
      NAME "fr. horn(s) - National_Anthems_-_Argentina.mid"
      TAKEVOLPAN 0 1 -1
      SOFFS 9 18
      PLAYRATE 1 1 0 -1 0 0.0025
      CHANMODE 0
      GUID {37AED05E-937F-6A42-A52F-6A4A7E6A8A65}
      <SOURCE MIDI
        HASDATA 1 480 QN
        POOLEDEVTS {2D0B1DE3-BA38-C14B-85F0-DF2EAE2CE4AA}
        <X 0 0 0 0 3 "fr. horn(s)"
          /wNmci4gaG9ybihzKQ==
        >
        <X 0 0 0 0 4 "Sound Canvas"
          /wRTb3VuZCBDYW52YXM=
        >
        E 0 91 3a 5a
        E 879 81 3a 01
        E 66 91 3e 5f
        E 683 81 3e 01
        E 121 91 3a 5d
        E 119 81 3a 19
        E 30 91 41 5f
        E 1313 81 41 08
        E 134 91 3f 5f
        E 291 81 3f 19
        E 40 91 3c 5a
        E 111 81 3c 35
        E 41 91 39 5a
        E 347 81 39 01
        E 130 91 39 4f
        E 369 81 39 10
        E 123 91 39 4f
        E 333 81 39 0b
        E 140 91 39 55
        E 381 81 39 01
        E 109 91 39 55
        E 699 91 3a 55
        E 12 81 39 36
        E 79 81 3a 2d
        E 34 91 3c 35
        E 112 81 3c 20
        E 27 91 3a 4d
        E 1030 81 3a 40
        E 168 91 3e 57
        E 224 81 3e 19
        E 12 91 3f 4e
        E 222 81 3f 21
        E 3 91 3c 55
        E 214 81 3c 04
        E 44 91 3e 4a
        E 395 81 3e 15
        E 88 91 3e 4d
        E 247 81 3e 01
        E 84 91 46 5a
        E 106 81 46 2e
        E 18 91 45 48
        E 238 81 45 2e
        E 20 91 43 55
        E 169 81 43 0b
        E 57 91 41 5a
        E 272 81 41 12
        E 76 91 3f 4a
        E 98 81 3f 21
        E 21 91 3e 4f
        E 975 91 35 47
        E 9 81 3e 39
        E 389 81 35 51
        E 100 91 3a 5d
        E 6 91 35 4d
        E 238 81 3a 37
        E 18 81 35 29
        E 68 91 3e 5a
        E 2 91 3a 48
        E 82 81 3a 2a
        E 10 81 3e 2f
        E 64 91 3c 52
        E 3 91 37 47
        E 401 81 3c 24
        E 6 81 37 2a
        E 76 91 37 4d
        E 1 91 3c 44
        E 206 81 3c 24
        E 32 81 37 3f
        E 65 91 3f 5d
        E 11 91 3c 4a
        E 68 81 3f 3d
        E 8 81 3c 35
        E 63 91 3a 4d
        E 14 91 3e 2d
        E 409 81 3e 3b
        E 3 81 3a 32
        E 55 91 3f 5a
        E 6 91 3c 4d
        E 253 81 3c 1d
        E 2 81 3f 3f
        E 77 91 3f 44
        E 10 91 3c 44
        E 85 81 3f 2c
        E 0 81 3c 01
        E 56 91 3e 47
        E 5 91 35 4f
        E 437 81 3e 49
        E 1 81 35 37
        E 30 91 3e 55
        E 6 91 3a 4f
        E 267 81 3a 35
        E 5 81 3e 1e
        E 94 91 3a 5a
        E 3 91 3e 4b
        E 52 81 3a 3d
        E 11 81 3e 2a
        E 57 91 3a 5a
        E 5 91 3e 4e
        E 282 81 3a 47
        E 20 81 3e 29
        E 180 91 32 5d
        E 276 81 32 01
        E 24 91 35 5f
        E 96 81 35 57
        E 69 91 3a 48
        E 389 81 3a 3c
        E 83 91 3a 55
        E 242 81 3a 3d
        E 113 91 3a 55
        E 51 81 3a 3d
        E 85 91 3a 4e
        E 362 81 3a 24
        E 97 91 3c 55
        E 322 81 3c 0e
        E 40 91 3a 4f
        E 54 81 3a 2b
        E 72 91 3a 55
        E 475 81 3a 01
        E 22 91 39 1a
        E 593 81 39 53
        E 337 91 3c 5d
        E 1 91 39 4a
        E 231 81 3c 1d
        E 25 81 39 39
        E 56 91 41 55
        E 2 91 3c 4f
        E 72 81 41 48
        E 20 81 3c 38
        E 75 91 3e 4f
        E 16 91 3a 1b
        E 358 81 3e 36
        E 5 81 3a 34
        E 110 91 3e 5d
        E 2 91 3a 4a
        E 231 81 3e 37
        E 18 81 3a 45
        E 85 91 43 42
        E 4 91 3e 41
        E 79 81 43 52
        E 18 81 3e 41
        E 47 91 3a 4d
        E 0 91 37 47
        E 354 81 37 24
        E 3 81 3a 32
        E 113 91 3a 55
        E 7 91 37 48
        E 209 81 3a 38
        E 23 81 37 2a
        E 73 91 3a 5d
        E 5 91 40 4a
        E 75 81 3a 30
        E 26 81 40 3f
        E 63 91 3c 4e
        E 3 91 39 52
        E 402 81 39 22
        E 8 81 3c 2f
        E 64 91 3c 44
        E 7 91 39 48
        E 396 81 39 34
        E 5 81 3c 2f
        E 60 91 3c 44
        E 12 91 39 44
        E 164 81 39 51
        E 9 81 3c 48
        E 70 91 45 62
        E 7 91 41 55
        E 159 81 45 1d
        E 22 81 41 16
        E 38 91 46 62
        E 5 91 43 5a
        E 147 81 43 26
        E 15 81 46 31
        E 60 91 45 57
        E 3 91 48 4f
        E 140 81 45 39
        E 0 81 48 43
        E 108 91 49 62
        E 2 91 46 5d
        E 397 81 49 50
        E 33 81 46 4a
        E 52 91 49 65
        E 12 91 41 39
        E 244 81 49 46
        E 9 81 41 24
        E 72 91 41 4b
        E 1 91 49 62
        E 98 81 41 1f
        E 12 81 49 19
        E 18 91 4b 55
        E 5 91 42 4e
        E 213 81 42 01
        E 6 81 4b 46
        E 3 91 49 5d
        E 0 91 41 4f
        E 160 81 41 20
        E 20 81 49 15
        E 47 91 3f 4e
        E 19 91 48 39
        E 224 81 48 01
        E 6 91 3d 4a
        E 8 91 46 5d
        E 61 81 3f 01
        E 71 81 46 30
        E 4 81 3d 11
        E 117 91 3d 62
        E 2 91 46 5d
        E 928 81 3d 01
        E 51 81 46 01
        E 7 91 3c 47
        E 6 91 45 4e
        E 131 81 45 41
        E 17 81 3c 48
        E 94 91 41 5a
        E 187 81 41 38
        E 37 91 40 55
        E 197 81 40 31
        E 51 91 3f 4b
        E 192 81 3f 46
        E 59 b0 7b 00
        GUID {0EF98810-6EBD-794B-A992-7FF798E39F77}
        IGNTEMPO 0 120 4 4
        SRCCOLOR 1068
        VELLANE -1 86 6
        CFGEDITVIEW 7680 67.090909 0 6 0 0 0 0 0 0.5
        KEYSNAP 0
        TRACKSEL 226
        EVTFILTER 0 -1 -1 -1 -1 0 0 0 0 -1 -1 -1 -1 0 -1 0 -1 -1
        CFGEDIT 1 0 0 0 0 0 1 0 1 1 1 0.25 48 52 1920 1178 0 0 2 3 0 0 0 0 0 0.5 0 0 1 64
      >
    >
  >
  <TRACK {EF869DFD-FA85-EE4D-A133-ABEE14D1B7D0}
    NAME "ch5 (send bass)"
    PEAKCOL 16576
    BEAT -1
    AUTOMODE 0
    VOLPAN 1 0 -1 -1 1
    MUTESOLO 0 0 0
    IPHASE 0
    ISBUS 2 -1
    BUSCOMP 0 0
    SHOWINMIX 1 0.6667 0.5 1 0.5 0 0 0
    FREEMODE 0
    SEL 0
    REC 0 0 0 0 0 0 0
    VU 2
    TRACKHEIGHT 0 0
    INQ 0 0 0 0.5 100 0 0 100
    NCHAN 2
    FX 1
    TRACKID {EF869DFD-FA85-EE4D-A133-ABEE14D1B7D0}
    PERF 0
    MIDIOUT -1
    MAINSEND 1 0
  >
  <TRACK {97C14EE2-C273-C940-9D68-54C062C3CBCA}
    NAME ChipFront
    PEAKCOL 16576
    BEAT -1
    AUTOMODE 0
    VOLPAN 1 0 -1 -1 1
    MUTESOLO 0 0 0
    IPHASE 0
    ISBUS 0 0
    BUSCOMP 0 0
    SHOWINMIX 1 0.6667 0.5 1 0.5 0 0 0
    FREEMODE 0
    SEL 0
    REC 0 0 0 0 0 0 0
    VU 2
    TRACKHEIGHT 0 0
    INQ 0 0 0 0.5 100 0 0 100
    NCHAN 4
    FX 1
    TRACKID {97C14EE2-C273-C940-9D68-54C062C3CBCA}
    PERF 0
    AUXRECV 6 0 1 0 0 0 0 0 0 -1:U 0 -1 ''
    MIDIOUT -1
    MAINSEND 1 0
    <FXCHAIN
      SHOW 0
      LASTSEL 0
      DOCKED 0
      BYPASS 0 0 0
      <VST "VST: FabFilter Volcano 2 (SC) (FabFilter)" "FabFilter Volcano 2 (SC).vst" 0 "" 1180054068
        NDJWRu9e7f4EAAAAAQAAAAAAAAACAAAAAAAAAAQAAAAAAAAACAAAAAAAAAAEAAAAAQAAAAAAAAACAAAAAAAAAAQAAAAAAAAACAAAAAAAAADcCwAAAAAAAAAAEAA=
        776t3g3wrd4AAAA/AAAAPwAAAD8AAAA/AACAPwAAAAAAAAA/q6qqPq2+aD8AAAA/ig0yPM3MzD0AAAAAAAAAAAAAAAAAAIA/AACAP0Isdj8AAAA/bbDgPZqZGT8AAAAA
        AAAAAOev3zwAAIA/AAAAAAAAgD8AAAA/AAAAAJqZGT8AAAAAAAAAAAAAAAAAAIA/AAAAAAAAgD8AAAA/AAAAAJqZGT8AAAAAAAAAAAAAAAAAAIA/AAAAAKuqqj4ATrI+
        AAAAPwAAAADBykk/XXRRPwAAAACJiIg9AACAP6oXiD4AAAAAAAAAAAAAAAAAAAAAAACAPwAAAAAAAAA/AAAAAAAAAAAAAAAAAAAAPwAAAAAAAAAAAAAAAAAAAD8AAAAA
        AAAAAAAAAAAAAAA/AAAAAAAAAAAAAAAAAAAAPwAAAAAAAAAAAAAAAAAAAD8AAAAAAAAAAAAAAAAAAAA/AAAAAAAAAAAAAAAAAAAAPwAAAAAAAAAAAAAAAAAAAD8AAAAA
        AAAAAAAAAAAAAAA/AAAAAAAAAAAAAAAAAAAAPwAAAAAAAAAAAAAAAAAAAD8AAAAAAAAAAAAAAAAAAAA/AAAAAAAAAAAAAAAAAAAAPwAAAAAAAAAAAAAAAHwZED4AAAA/
        KKO3PQAAgD8AAAAAAAAAAImIiD3y0iU/AAAAAAAAgD8AAAAAdGjRPQAAAAAAAIA/AAAAAAAAAD8AAAAAAAAAAAAAAAAAAAA/AAAAAAAAAAAAAAAAAAAAPwAAAAAAAAAA
        AAAAAAAAAD8AAAAAAAAAAAAAAAAAAAA/AAAAAAAAAAAAAAAAAAAAPwAAAAAAAAAAAAAAAAAAAD8AAAAAAAAAAAAAAAAAAAA/AAAAAAAAAAAAAAAAAAAAPwAAAAAAAAAA
        AAAAAAAAAD8AAAAAAAAAAAAAAAAAAAA/AAAAAAAAAAAAAAAAAAAAPwAAAAAAAAAAAAAAAAAAAD8AAAAAAAAAAAAAAAAAAAA/AAAAAAAAAAAAAAAAvvR9PgAAAD8AAAA/
        AAAAPwAAAAAAAAAAiYiIPQAAAD8AAAAAAAAAAAAAAAAAAAA/AAAAAAAAAAAAAAAAAAAAPwAAAAAAAAAAAAAAAAAAAD8AAAAAAAAAAAAAAAAAAAA/AAAAAAAAAAAAAAAA
        AAAAPwAAAAAAAAAAAAAAAAAAAD8AAAAAAAAAAAAAAAAAAAA/AAAAAAAAAAAAAAAAAAAAPwAAAAAAAAAAAAAAAAAAAD8AAAAAAAAAAAAAAAAAAAA/AAAAAAAAAAAAAAAA
        AAAAPwAAAAAAAAAAAAAAAAAAAD8AAAAAAAAAAAAAAAAAAAA/AAAAAAAAAAAAAAAAAAAAPwAAAAAAAAAAAAAAAAAAAD8AAAAAAAAAAAAAAAC+9H0+AAAAPwAAAD8AAAA/
        AAAAAAAAAACJiIg9AAAAPwAAAAAAAAAAAAAAAAAAAD8AAAAAAAAAAAAAAAAAAAA/AAAAAAAAAAAAAAAAAAAAPwAAAAAAAAAAAAAAAAAAAD8AAAAAAAAAAAAAAAAAAAA/
        AAAAAAAAAAAAAAAAAAAAPwAAAAAAAAAAAAAAAAAAAD8AAAAAAAAAAAAAAAAAAAA/AAAAAAAAAAAAAAAAAAAAPwAAAAAAAAAAAAAAAAAAAD8AAAAAAAAAAAAAAAAAAAA/
        AAAAAAAAAAAAAAAAAAAAPwAAAAAAAAAAAAAAAAAAAD8AAAAAAAAAAAAAAAAAAAA/AAAAAAAAAAAAAAAAAAAAPwAAAAAAAAAAAAAAAL70fT4AAAA/AAAAPwAAAD8AAAAA
        AAAAAImIiD0AAAA/AAAAAAAAAAAAAAAAAAAAPwAAAAAAAAAAAAAAAAAAAD8AAAAAAAAAAAAAAAAAAAA/AAAAAAAAAAAAAAAAAAAAPwAAAAAAAAAAAAAAAAAAAD8AAAAA
        AAAAAAAAAAAAAAA/AAAAAAAAAAAAAAAAAAAAPwAAAAAAAAAAAAAAAAAAAD8AAAAAAAAAAAAAAAAAAAA/AAAAAAAAAAAAAAAAAAAAPwAAAAAAAAAAAAAAAAAAAD8AAAAA
        AAAAAAAAAAAAAAA/AAAAAAAAAAAAAAAAAAAAPwAAAAAAAAAAAAAAAAAAAD8AAAAAAAAAAAAAAAAAAAA/AAAAAAAAAAAAAAAAvvR9PgAAAD8AAAA/AAAAPwAAAAAAAAAA
        iYiIPQAAAD8AAAAAAAAAAAAAAAAAAAA/AAAAAAAAAAAAAAAAAAAAPwAAAAAAAAAAAAAAAAAAAD8AAAAAAAAAAAAAAAAAAAA/AAAAAAAAAAAAAAAAAAAAPwAAAAAAAAAA
        AAAAAAAAAD8AAAAAAAAAAAAAAAAAAAA/AAAAAAAAAAAAAAAAAAAAPwAAAAAAAAAAAAAAAAAAAD8AAAAAAAAAAAAAAAAAAAA/AAAAAAAAAAAAAAAAAAAAPwAAAAAAAAAA
        AAAAAAAAAD8AAAAAAAAAAAAAAAAAAAA/AAAAAAAAAAAAAAAAAAAAPwAAAAAAAAAAAAAAAAAAAD8AAAAAAAAAAAAAAAAAAAAAmpmZPgAAAAAAAAAAAAAAAAAAgD8AAAAA
        mpmZPgAAAAAAAAAAAAAAAAAAgD8AAAAAmpmZPgAAAAAAAAAAAAAAAAAAgD8AAAAAmpmZPgAAAAAAAAAAAAAAAAAAgD8AAAAAmpmZPgAAAAAAAAAAAAAAAAAAgD8AAAAA
        mpmZPgAAAAAAAAAAAAAAAAAAgD8AAAAAAAAAAAAAAAAAAAAAAAAAAAAAAAAAAAAAAAAAAAAAAAAAAAAAAAAAAAAAAAAAAAAAAAAAAAAAAAAAAAAAAAAAAAAAAAAAAAAA
        AAAAAAAAAAAAAAAAAAAAAAAAAAAAAAAAAAAAAAAAAAAAAAAAAAAAAAAAAAAAAAAAAAAAAAAAAAAAAAAAAAAAAAAAAAAAAAAAAAAAAKuqKj3ZiZ09gShWPgAAAAAAAAAA
        v+eWPQAAAAAAAAA/AAAAAAAAAAAAAAAAAAAAAAAAAD8AAAAAAAAAAAAAAAAAAAAAAAAAPwAAAAAAAAAAAAAAAAAAAAAAAAAAAAAAAAAAAAAAAAAAAAAAAAAAAAAAAAAA
        AAAAAAAAAAAAAAAAAAAAAAAAAAAAAAAAAAAAAAAAAAAAAAAAAAAAAAAAAAAAAAAAAAAAAAAAAAAAAAAAAAAAAAAAAAAAAAAAAAAAAAAAAAAAAAAAAAAAAAAAAAAAAAAA
        AAAAAAAAAAAAAAAAAAAAAAAAAAAAAAAAAAAAAAAAAAAAAAAAAAAAAAAAAAAAAAAAAAAAAAAAAAAAAAAAAAAAAAAAAAAAAAAAAAAAAAAAAAAAAAAAAAAAAAAAAAAAAAAA
        AAAAAAAAAAAAAAAAAAAAAAAAAAAAAAAAAAAAAAAAAAAAAAAAAAAAAAAAAAAAAAAAAAAAAAAAAAAAAAAAAAAAAAAAAAAAAAAAAAAAAAAAAAAAAAAAAAAAAAAAAAAAAAAA
        AAAAAAAAAAAAAAAAAAAAAAAAAAAAAAAAAAAAAAAAAAAAAAAAAAAAAAAAAAAAAAAAAAAAAAAAAAAAAAAAAAAAAAAAAAAAAAAAAAAAAAAAAAAAAAAAAAAAPwAAAD8AAAA/
        AAAAPwAAAD8AAAA/AAAAPwAAAD8AAAAAAAAAAAAAAAAAAAAAAAAAAAAAAAAAAAAAAAAAAAAAAAAAAAAAAAAAAAAAAAAAAAAAAAAAAAAAAAAAAAAAAAAAAAAAAAAAAAAA
        AAAAAAAAAAAAAAAAAAAAAAAAAAAAAAAAAAAAAAAAAAAAAAAAAAAAAAAAAAAAAAAAAAAAAAAAAAAAAAAAAAAAAAAAAAAAAAAAAAAAAAAAAAAAAAAAAAAAAAAAAAAAAAAA
        AAAAAAAAAAAAAAAAAAAAAAAAAAAAAAAAAAAAAAAAAAAAAAAAAAAAAAAAAAAAAAAAAAAAAAAAAAAAAAAAAAAAAAAAAAAAAAAAAAAAAAAAAAAAAAAAAAAAAAAAAAAAAAAA
        AAAAAAAAAAAAAAAAAAAAAAAAAAAAAAAAAAAAAAAAAAAAAAAAAAAAAAAAAAAAAAAAAAAAAAAAAAAAAAAA
        Q2hpcEZyb250AENoaXBGcm9udAAQAAAA
      >
      PRESETNAME ChipFront
      FLOATPOS 36 32 641 529
      FXID {4C5A6810-F3ED-0645-A06D-6758F70CB097}
      WAK 0
    >
  >
  <TRACK {1B564899-9ACC-8C4B-8FBF-925A5A247A13}
    NAME ChipSide
    PEAKCOL 16576
    BEAT -1
    AUTOMODE 0
    VOLPAN 1 0 -1 -1 1
    MUTESOLO 0 0 0
    IPHASE 0
    ISBUS 0 0
    BUSCOMP 0 0
    SHOWINMIX 1 0.6667 0.5 1 0.5 0 0 0
    FREEMODE 0
    SEL 0
    REC 0 0 0 0 0 0 0
    VU 2
    TRACKHEIGHT 0 0
    INQ 0 0 0 0.5 100 0 0 100
    NCHAN 4
    FX 1
    TRACKID {1B564899-9ACC-8C4B-8FBF-925A5A247A13}
    PERF 0
    AUXRECV 6 0 1.03113579563571 0 0 0 0 2 0 -1:U 0 -1 ''
    MIDIOUT -1
    MAINSEND 1 0
    <FXCHAIN
      SHOW 0
      LASTSEL 0
      DOCKED 0
      BYPASS 0 0 0
      <VST "VST: FabFilter Volcano 2 (SC) (FabFilter)" "FabFilter Volcano 2 (SC).vst" 0 "" 1180054068
        NDJWRu9e7f4EAAAAAQAAAAAAAAACAAAAAAAAAAQAAAAAAAAACAAAAAAAAAAIAAAAAQAAAAAAAAACAAAAAAAAAAQAAAAAAAAACAAAAAAAAAAQAAAAAAAAACAAAAAAAAAA
        QAAAAAAAAACAAAAAAAAAANwLAAAAAAAAAAAQAA==
        776t3g3wrd4AAAA/AAAAPwAAAD8AAAA/AACAPwAAAAAAAIA/q6qqPsplFD8AAAA/TxqgPc3MzD0AAAAAAAAAAEKGIj8AAIA/AACAP0Isdj8AAAA/bbDgPZqZGT8AAAAA
        AAAAAOev3zwAAIA/AAAAAAAAgD8AAAA/AAAAAJqZGT8AAAAAAAAAAAAAAAAAAIA/AAAAAAAAgD8AAAA/AAAAAJqZGT8AAAAAAAAAAAAAAAAAAIA/AAAAAKuqqj6CdAA9
        EObJPZgn+j4AAIA/AAAAAAAAAACJiAg+AACAP7PDtD4AAIA/AAAAAAAAAAAAAAAAq6qqPgAAAACeFR0/AAAAAAAAgD8AAAAAAAAAPwAAAAAAAAAAAAAAAAAAAD8AAAAA
        AAAAAAAAAAAAAAA/AAAAAAAAAAAAAAAAAAAAPwAAAAAAAAAAAAAAAAAAAD8AAAAAAAAAAAAAAAAAAAA/AAAAAAAAAAAAAAAAAAAAPwAAAAAAAAAAAAAAAAAAAD8AAAAA
        AAAAAAAAAAAAAAA/AAAAAAAAAAAAAAAAAAAAPwAAAAAAAAAAAAAAAAAAAD8AAAAAAAAAAAAAAAAAAAA/AAAAAAAAAAAAAAAAAAAAPwAAAAAAAAAAAAAAAHwZED4AAAA/
        KKO3PQAAgD8AAAAAAAAAAImIiD3y0iU/AAAAAAAAgD8AAAAAdGjRPQAAAAAAAIA/AAAAAAAAAD8AAAAAAAAAAAAAAAAAAAA/AAAAAAAAAAAAAAAAAAAAPwAAAAAAAAAA
        AAAAAAAAAD8AAAAAAAAAAAAAAAAAAAA/AAAAAAAAAAAAAAAAAAAAPwAAAAAAAAAAAAAAAAAAAD8AAAAAAAAAAAAAAAAAAAA/AAAAAAAAAAAAAAAAAAAAPwAAAAAAAAAA
        AAAAAAAAAD8AAAAAAAAAAAAAAAAAAAA/AAAAAAAAAAAAAAAAAAAAPwAAAAAAAAAAAAAAAAAAAD8AAAAAAAAAAAAAAAAAAAA/AAAAAAAAAAAAAAAAvvR9PgAAAD8AAAA/
        AAAAPwAAAAAAAAAAiYiIPQAAAD8AAAAAAAAAAAAAAAAAAAA/AAAAAAAAAAAAAAAAAAAAPwAAAAAAAAAAAAAAAAAAAD8AAAAAAAAAAAAAAAAAAAA/AAAAAAAAAAAAAAAA
        AAAAPwAAAAAAAAAAAAAAAAAAAD8AAAAAAAAAAAAAAAAAAAA/AAAAAAAAAAAAAAAAAAAAPwAAAAAAAAAAAAAAAAAAAD8AAAAAAAAAAAAAAAAAAAA/AAAAAAAAAAAAAAAA
        AAAAPwAAAAAAAAAAAAAAAAAAAD8AAAAAAAAAAAAAAAAAAAA/AAAAAAAAAAAAAAAAAAAAPwAAAAAAAAAAAAAAAAAAAD8AAAAAAAAAAAAAAAC+9H0+AAAAPwAAAD8AAAA/
        AAAAAAAAAACJiIg9AAAAPwAAAAAAAAAAAAAAAAAAAD8AAAAAAAAAAAAAAAAAAAA/AAAAAAAAAAAAAAAAAAAAPwAAAAAAAAAAAAAAAAAAAD8AAAAAAAAAAAAAAAAAAAA/
        AAAAAAAAAAAAAAAAAAAAPwAAAAAAAAAAAAAAAAAAAD8AAAAAAAAAAAAAAAAAAAA/AAAAAAAAAAAAAAAAAAAAPwAAAAAAAAAAAAAAAAAAAD8AAAAAAAAAAAAAAAAAAAA/
        AAAAAAAAAAAAAAAAAAAAPwAAAAAAAAAAAAAAAAAAAD8AAAAAAAAAAAAAAAAAAAA/AAAAAAAAAAAAAAAAAAAAPwAAAAAAAAAAAAAAAL70fT4AAAA/AAAAPwAAAD8AAAAA
        AAAAAImIiD0AAAA/AAAAAAAAAAAAAAAAAAAAPwAAAAAAAAAAAAAAAAAAAD8AAAAAAAAAAAAAAAAAAAA/AAAAAAAAAAAAAAAAAAAAPwAAAAAAAAAAAAAAAAAAAD8AAAAA
        AAAAAAAAAAAAAAA/AAAAAAAAAAAAAAAAAAAAPwAAAAAAAAAAAAAAAAAAAD8AAAAAAAAAAAAAAAAAAAA/AAAAAAAAAAAAAAAAAAAAPwAAAAAAAAAAAAAAAAAAAD8AAAAA
        AAAAAAAAAAAAAAA/AAAAAAAAAAAAAAAAAAAAPwAAAAAAAAAAAAAAAAAAAD8AAAAAAAAAAAAAAAAAAAA/AAAAAAAAAAAAAAAAvvR9PgAAAD8AAAA/AAAAPwAAAAAAAAAA
        iYiIPQAAAD8AAAAAAAAAAAAAAAAAAAA/AAAAAAAAAAAAAAAAAAAAPwAAAAAAAAAAAAAAAAAAAD8AAAAAAAAAAAAAAAAAAAA/AAAAAAAAAAAAAAAAAAAAPwAAAAAAAAAA
        AAAAAAAAAD8AAAAAAAAAAAAAAAAAAAA/AAAAAAAAAAAAAAAAAAAAPwAAAAAAAAAAAAAAAAAAAD8AAAAAAAAAAAAAAAAAAAA/AAAAAAAAAAAAAAAAAAAAPwAAAAAAAAAA
        AAAAAAAAAD8AAAAAAAAAAAAAAAAAAAA/AAAAAAAAAAAAAAAAAAAAPwAAAAAAAAAAAAAAAAAAAD8AAAAAAAAAAAAAAAAAAAAAmpmZPgAAAAAAAAAAAAAAAAAAgD8AAAAA
        mpmZPgAAAAAAAAAAAAAAAAAAgD8AAAAAmpmZPgAAAAAAAAAAAAAAAAAAgD8AAAAAmpmZPgAAAAAAAAAAAAAAAAAAgD8AAAAAmpmZPgAAAAAAAAAAAAAAAAAAgD8AAAAA
        mpmZPgAAAAAAAAAAAAAAAAAAgD8AAAAAAAAAAAAAAAAAAAAAAAAAAAAAAAAAAAAAAAAAAAAAAAAAAAAAAAAAAAAAAAAAAAAAAAAAAAAAAAAAAAAAAAAAAAAAAAAAAAAA
        AAAAAAAAAAAAAAAAAAAAAAAAAAAAAAAAAAAAAAAAAAAAAAAAAAAAAAAAAAAAAAAAAAAAAAAAAAAAAAAAAAAAAAAAAAAAAAAAAAAAAKuqqj3ZiZ09gShWPgAAgD8AAAAA
        v+eWPdmJHT0WszE/AAAAAAAAAACSdiw8AAAAAAAAAD8AAAAAAAAAAAAAAAAAAAAAAAAAPwAAAAAAAAAAAAAAAAAAAAAAAAAAAAAAAAAAAAAAAAAAAAAAAAAAAAAAAAAA
        AAAAAAAAAAAAAAAAAAAAAAAAAAAAAAAAAAAAAAAAAAAAAAAAAAAAAAAAAAAAAAAAAAAAAAAAAAAAAAAAAAAAAAAAAAAAAAAAAAAAAAAAAAAAAAAAAAAAAAAAAAAAAAAA
        AAAAAAAAAAAAAAAAAAAAAAAAAAAAAAAAAAAAAAAAAAAAAAAAAAAAAAAAAAAAAAAAAAAAAAAAAAAAAAAAAAAAAAAAAAAAAAAAAAAAAAAAAAAAAAAAAAAAAAAAAAAAAAAA
        AAAAAAAAAAAAAAAAAAAAAAAAAAAAAAAAAAAAAAAAAAAAAAAAAAAAAAAAAAAAAAAAAAAAAAAAAAAAAAAAAAAAAAAAAAAAAAAAAAAAAAAAAAAAAAAAAAAAAAAAAAAAAAAA
        AAAAAAAAAAAAAAAAAAAAAAAAAAAAAAAAAAAAAAAAAAAAAAAAAAAAAAAAAAAAAAAAAAAAAAAAAAAAAAAAAAAAAAAAAAAAAAAAAAAAAAAAAAAAAAAAAAAAPwAAAD8AAAA/
        AAAAPwAAAD8AAAA/AAAAPwAAAD8AAAAAAAAAAAAAAAAAAAAAAAAAAAAAAAAAAAAAAAAAAAAAAAAAAAAAAAAAAAAAAAAAAAAAAAAAAAAAAAAAAAAAAAAAAAAAAAAAAAAA
        AAAAAAAAAAAAAAAAAAAAAAAAAAAAAAAAAAAAAAAAAAAAAAAAAAAAAAAAAAAAAAAAAAAAAAAAAAAAAAAAAAAAAAAAAAAAAAAAAAAAAAAAAAAAAAAAAAAAAAAAAAAAAAAA
        AAAAAAAAAAAAAAAAAAAAAAAAAAAAAAAAAAAAAAAAAAAAAAAAAAAAAAAAAAAAAAAAAAAAAAAAAAAAAAAAAAAAAAAAAAAAAAAAAAAAAAAAAAAAAAAAAAAAAAAAAAAAAAAA
        AAAAAAAAAAAAAAAAAAAAAAAAAAAAAAAAAAAAAAAAAAAAAAAAAAAAAAAAAAAAAAAAAAAAAAAAAAAAAAAA
        Q2hpcFNpZGUAQ2hpcFNpZGUAEAAAAA==
      >
      PRESETNAME ChipSide
      FLOATPOS 36 32 641 529
      FXID {20356A84-5CFD-6E4A-AA26-2A8A49CE7A76}
      WAK 0
    >
  >
  <EXTENSIONS
    <SWSAUTOCOLOR
      {00000000-0000-0000-0000-000000000000} 0 "" "" ""
    >
  >
>
